{
    "asset" : {
        "generator" : "Khronos glTF Blender I/O v1.2.75",
        "version" : "2.0"
    },
    "scene" : 0,
    "scenes" : [
        {
            "name" : "Scene",
            "nodes" : [
                0,
                1
            ]
        }
    ],
    "nodes" : [
        {
            "mesh" : 0,
            "name" : "Cylinder"
        },
        {
            "mesh" : 1,
            "name" : "cutter",
            "scale" : [
                1.1555216312408447,
                1,
                1.1555216312408447
            ],
            "translation" : [
                0,
                0.06456636637449265,
                0
            ]
        }
    ],
    "meshes" : [
        {
            "name" : "Cylinder",
            "primitives" : [
                {
                    "attributes" : {
                        "POSITION" : 0,
                        "NORMAL" : 1,
                        "TEXCOORD_0" : 2
                    },
                    "indices" : 3
                }
            ]
        },
        {
            "name" : "Cylinder.001",
            "primitives" : [
                {
                    "attributes" : {
                        "POSITION" : 4,
                        "NORMAL" : 5,
                        "TEXCOORD_0" : 6
                    },
                    "indices" : 7
                }
            ]
        }
    ],
    "accessors" : [
        {
            "bufferView" : 0,
            "componentType" : 5126,
            "count" : 388,
            "max" : [
                1.3779242038726807,
                1.0000001192092896,
                1.3779243230819702
            ],
            "min" : [
                -1.3779242038726807,
                -1,
                -1.3779240846633911
            ],
            "type" : "VEC3"
        },
        {
            "bufferView" : 1,
            "componentType" : 5126,
            "count" : 388,
            "type" : "VEC3"
        },
        {
            "bufferView" : 2,
            "componentType" : 5126,
            "count" : 388,
            "type" : "VEC2"
        },
        {
            "bufferView" : 3,
            "componentType" : 5123,
            "count" : 756,
            "type" : "SCALAR"
        },
        {
            "bufferView" : 4,
            "componentType" : 5126,
            "count" : 192,
            "max" : [
                0.800000011920929,
                1,
                0.800000011920929
            ],
            "min" : [
                -0.800000011920929,
                -1,
                -0.800000011920929
            ],
            "type" : "VEC3"
        },
        {
            "bufferView" : 5,
            "componentType" : 5126,
            "count" : 192,
            "type" : "VEC3"
        },
        {
            "bufferView" : 6,
            "componentType" : 5126,
            "count" : 192,
            "type" : "VEC2"
        },
        {
            "bufferView" : 7,
            "componentType" : 5123,
            "count" : 372,
            "type" : "SCALAR"
        }
    ],
    "bufferViews" : [
        {
            "buffer" : 0,
            "byteLength" : 4656,
            "byteOffset" : 0
        },
        {
            "buffer" : 0,
            "byteLength" : 4656,
            "byteOffset" : 4656
        },
        {
            "buffer" : 0,
            "byteLength" : 3104,
            "byteOffset" : 9312
        },
        {
            "buffer" : 0,
            "byteLength" : 1512,
            "byteOffset" : 12416
        },
        {
            "buffer" : 0,
            "byteLength" : 2304,
            "byteOffset" : 13928
        },
        {
            "buffer" : 0,
            "byteLength" : 2304,
            "byteOffset" : 16232
        },
        {
            "buffer" : 0,
            "byteLength" : 1536,
            "byteOffset" : 18536
        },
        {
            "buffer" : 0,
            "byteLength" : 744,
            "byteOffset" : 20072
        }
    ],
    "buffers" : [
        {
            "byteLength" : 20816,
            "uri" : "data:application/octet-stream;base64,"
        }
    ]
}
