{
    "asset" : {
        "generator" : "Khronos glTF Blender I/O v1.2.75",
        "version" : "2.0"
    },
    "scene" : 0,
    "scenes" : [
        {
            "name" : "Scene",
            "nodes" : [
                0,
                1,
                2,
                3,
                4,
                5,
                6
            ]
        }
    ],
    "nodes" : [
        {
            "mesh" : 0,
            "name" : "maschina",
            "translation" : [
                0,
                1,
                1.9956612586975098
            ]
        },
        {
            "mesh" : 1,
            "name" : "einspanner",
            "scale" : [
                1,
                1,
                0.5320383310317993
            ],
            "translation" : [
                0,
                1,
                -1.7339808940887451
            ]
        },
        {
            "mesh" : 2,
            "name" : "feststellschraube",
            "rotation" : [
                0.5,
                -0.5,
                -0.5,
                0.4999999701976776
            ],
            "scale" : [
                0.1273384988307953,
                0.1273384988307953,
                0.1273384988307953
            ],
            "translation" : [
                0,
                0.8739566802978516,
                -2.2266035079956055
            ]
        },
        {
            "mesh" : 3,
            "name" : "feststellschraube.001",
            "rotation" : [
                0.5,
                -0.5,
                -0.5,
                0.4999999701976776
            ],
            "translation" : [
                0,
                3.990000009536743,
                0
            ]
        },
        {
            "mesh" : 4,
            "name" : "links",
            "rotation" : [
                0.7071067690849304,
                0,
                0,
                0.7071067690849304
            ],
            "translation" : [
                0,
                0.8700000047683716,
                -1.255049705505371
            ]
        },
        {
            "mesh" : 5,
            "name" : "spitz",
            "rotation" : [
                0,
                0.7071067690849304,
                -0.7071067690849304,
                -3.0908619663705394e-08
            ],
            "translation" : [
                0,
                0.8700000047683716,
                1.2541335821151733
            ]
        },
        {
            "mesh" : 6,
            "name" : "Cube",
            "scale" : [
                0.5,
                0.5,
                2
            ]
        }
    ],
    "meshes" : [
        {
            "name" : "Cube.002",
            "primitives" : [
                {
                    "attributes" : {
                        "POSITION" : 0,
                        "NORMAL" : 1,
                        "TEXCOORD_0" : 2
                    },
                    "indices" : 3
                }
            ]
        },
        {
            "name" : "Cube.003",
            "primitives" : [
                {
                    "attributes" : {
                        "POSITION" : 4,
                        "NORMAL" : 5,
                        "TEXCOORD_0" : 6
                    },
                    "indices" : 7
                }
            ]
        },
        {
            "name" : "Cylinder",
            "primitives" : [
                {
                    "attributes" : {
                        "POSITION" : 8,
                        "NORMAL" : 9,
                        "TEXCOORD_0" : 10
                    },
                    "indices" : 11
                }
            ]
        },
        {
            "name" : "Cylinder.001",
            "primitives" : [
                {
                    "attributes" : {
                        "POSITION" : 12,
                        "NORMAL" : 13,
                        "TEXCOORD_0" : 14
                    },
                    "indices" : 15
                }
            ]
        },
        {
            "name" : "Cylinder.002",
            "primitives" : [
                {
                    "attributes" : {
                        "POSITION" : 16,
                        "NORMAL" : 17,
                        "TEXCOORD_0" : 18
                    },
                    "indices" : 19
                }
            ]
        },
        {
            "name" : "Cylinder.003",
            "primitives" : [
                {
                    "attributes" : {
                        "POSITION" : 20,
                        "NORMAL" : 21,
                        "TEXCOORD_0" : 22
                    },
                    "indices" : 23
                }
            ]
        },
        {
            "name" : "Cube",
            "primitives" : [
                {
                    "attributes" : {
                        "POSITION" : 24,
                        "NORMAL" : 25,
                        "TEXCOORD_0" : 26
                    },
                    "indices" : 27
                }
            ]
        }
    ],
    "accessors" : [
        {
            "bufferView" : 0,
            "componentType" : 5126,
            "count" : 96,
            "max" : [
                0.5,
                0.5,
                0.00433880090713501
            ],
            "min" : [
                -0.5,
                -0.5,
                -1
            ],
            "type" : "VEC3"
        },
        {
            "bufferView" : 1,
            "componentType" : 5126,
            "count" : 96,
            "type" : "VEC3"
        },
        {
            "bufferView" : 2,
            "componentType" : 5126,
            "count" : 96,
            "type" : "VEC2"
        },
        {
            "bufferView" : 3,
            "componentType" : 5123,
            "count" : 180,
            "type" : "SCALAR"
        },
        {
            "bufferView" : 4,
            "componentType" : 5126,
            "count" : 69,
            "max" : [
                0.5,
                0.25,
                0.5
            ],
            "min" : [
                -0.5,
                -0.5,
                -0.5
            ],
            "type" : "VEC3"
        },
        {
            "bufferView" : 5,
            "componentType" : 5126,
            "count" : 69,
            "type" : "VEC3"
        },
        {
            "bufferView" : 6,
            "componentType" : 5126,
            "count" : 69,
            "type" : "VEC2"
        },
        {
            "bufferView" : 7,
            "componentType" : 5123,
            "count" : 288,
            "type" : "SCALAR"
        },
        {
            "bufferView" : 8,
            "componentType" : 5126,
            "count" : 520,
            "max" : [
                1.141614556312561,
                1,
                1.141614556312561
            ],
            "min" : [
                -1.1416144371032715,
                -0.002276390790939331,
                -1.1416147947311401
            ],
            "type" : "VEC3"
        },
        {
            "bufferView" : 9,
            "componentType" : 5126,
            "count" : 520,
            "type" : "VEC3"
        },
        {
            "bufferView" : 10,
            "componentType" : 5126,
            "count" : 520,
            "type" : "VEC2"
        },
        {
            "bufferView" : 11,
            "componentType" : 5123,
            "count" : 948,
            "type" : "SCALAR"
        },
        {
            "bufferView" : 12,
            "componentType" : 5126,
            "count" : 280,
            "max" : [
                1.1526761054992676,
                1,
                1.1526761054992676
            ],
            "min" : [
                -1.1526761054992676,
                0.7479020953178406,
                -1.1526763439178467
            ],
            "type" : "VEC3"
        },
        {
            "bufferView" : 13,
            "componentType" : 5126,
            "count" : 280,
            "type" : "VEC3"
        },
        {
            "bufferView" : 14,
            "componentType" : 5126,
            "count" : 280,
            "type" : "VEC2"
        },
        {
            "bufferView" : 15,
            "componentType" : 5123,
            "count" : 468,
            "type" : "SCALAR"
        },
        {
            "bufferView" : 16,
            "componentType" : 5126,
            "count" : 465,
            "max" : [
                0.17743179202079773,
                0.8025620579719543,
                0.17743180692195892
            ],
            "min" : [
                -0.17743179202079773,
                -0.41587013006210327,
                -0.17743179202079773
            ],
            "type" : "VEC3"
        },
        {
            "bufferView" : 17,
            "componentType" : 5126,
            "count" : 465,
            "type" : "VEC3"
        },
        {
            "bufferView" : 18,
            "componentType" : 5126,
            "count" : 465,
            "type" : "VEC2"
        },
        {
            "bufferView" : 19,
            "componentType" : 5123,
            "count" : 813,
            "type" : "SCALAR"
        },
        {
            "bufferView" : 20,
            "componentType" : 5126,
            "count" : 397,
            "max" : [
                0.17743179202079773,
                1.0071545839309692,
                0.17743180692195892
            ],
            "min" : [
                -0.17743179202079773,
                -0.13431629538536072,
                -0.17743179202079773
            ],
            "type" : "VEC3"
        },
        {
            "bufferView" : 21,
            "componentType" : 5126,
            "count" : 397,
            "type" : "VEC3"
        },
        {
            "bufferView" : 22,
            "componentType" : 5126,
            "count" : 397,
            "type" : "VEC2"
        },
        {
            "bufferView" : 23,
            "componentType" : 5123,
            "count" : 729,
            "type" : "SCALAR"
        },
        {
            "bufferView" : 24,
            "componentType" : 5126,
            "count" : 24,
            "max" : [
                1,
                1,
                1
            ],
            "min" : [
                -1,
                -1,
                -1
            ],
            "type" : "VEC3"
        },
        {
            "bufferView" : 25,
            "componentType" : 5126,
            "count" : 24,
            "type" : "VEC3"
        },
        {
            "bufferView" : 26,
            "componentType" : 5126,
            "count" : 24,
            "type" : "VEC2"
        },
        {
            "bufferView" : 27,
            "componentType" : 5123,
            "count" : 36,
            "type" : "SCALAR"
        }
    ],
    "bufferViews" : [
        {
            "buffer" : 0,
            "byteLength" : 1152,
            "byteOffset" : 0
        },
        {
            "buffer" : 0,
            "byteLength" : 1152,
            "byteOffset" : 1152
        },
        {
            "buffer" : 0,
            "byteLength" : 768,
            "byteOffset" : 2304
        },
        {
            "buffer" : 0,
            "byteLength" : 360,
            "byteOffset" : 3072
        },
        {
            "buffer" : 0,
            "byteLength" : 828,
            "byteOffset" : 3432
        },
        {
            "buffer" : 0,
            "byteLength" : 828,
            "byteOffset" : 4260
        },
        {
            "buffer" : 0,
            "byteLength" : 552,
            "byteOffset" : 5088
        },
        {
            "buffer" : 0,
            "byteLength" : 576,
            "byteOffset" : 5640
        },
        {
            "buffer" : 0,
            "byteLength" : 6240,
            "byteOffset" : 6216
        },
        {
            "buffer" : 0,
            "byteLength" : 6240,
            "byteOffset" : 12456
        },
        {
            "buffer" : 0,
            "byteLength" : 4160,
            "byteOffset" : 18696
        },
        {
            "buffer" : 0,
            "byteLength" : 1896,
            "byteOffset" : 22856
        },
        {
            "buffer" : 0,
            "byteLength" : 3360,
            "byteOffset" : 24752
        },
        {
            "buffer" : 0,
            "byteLength" : 3360,
            "byteOffset" : 28112
        },
        {
            "buffer" : 0,
            "byteLength" : 2240,
            "byteOffset" : 31472
        },
        {
            "buffer" : 0,
            "byteLength" : 936,
            "byteOffset" : 33712
        },
        {
            "buffer" : 0,
            "byteLength" : 5580,
            "byteOffset" : 34648
        },
        {
            "buffer" : 0,
            "byteLength" : 5580,
            "byteOffset" : 40228
        },
        {
            "buffer" : 0,
            "byteLength" : 3720,
            "byteOffset" : 45808
        },
        {
            "buffer" : 0,
            "byteLength" : 1626,
            "byteOffset" : 49528
        },
        {
            "buffer" : 0,
            "byteLength" : 4764,
            "byteOffset" : 51156
        },
        {
            "buffer" : 0,
            "byteLength" : 4764,
            "byteOffset" : 55920
        },
        {
            "buffer" : 0,
            "byteLength" : 3176,
            "byteOffset" : 60684
        },
        {
            "buffer" : 0,
            "byteLength" : 1458,
            "byteOffset" : 63860
        },
        {
            "buffer" : 0,
            "byteLength" : 288,
            "byteOffset" : 65320
        },
        {
            "buffer" : 0,
            "byteLength" : 288,
            "byteOffset" : 65608
        },
        {
            "buffer" : 0,
            "byteLength" : 192,
            "byteOffset" : 65896
        },
        {
            "buffer" : 0,
            "byteLength" : 72,
            "byteOffset" : 66088
        }
    ],
    "buffers" : [
        {
            "byteLength" : 66160,
            "uri" : "data:application/octet-stream;base64,"
        }
    ]
}
