{
    "asset" : {
        "generator" : "Khronos glTF Blender I/O v1.2.75",
        "version" : "2.0"
    },
    "scene" : 0,
    "scenes" : [
        {
            "extras" : {
                "glTF2ExportSettings" : {
                    "export_apply" : 1,
                    "export_cameras" : 1,
                    "export_extras" : 1,
                    "export_format" : "GLTF_EMBEDDED",
                    "export_lights" : 1,
                    "export_materials" : 1,
                    "export_yup" : 1
                }
            },
            "name" : "Scene",
            "nodes" : [
                0
            ]
        }
    ],
    "nodes" : [
        {
            "mesh" : 0,
            "name" : "Plane"
        }
    ],
    "materials" : [
        {
            "doubleSided" : true,
            "emissiveFactor" : [
                0,
                0,
                0
            ],
            "name" : "pbr_material",
            "normalTexture" : {
                "index" : 0,
                "texCoord" : 0
            },
            "pbrMetallicRoughness" : {
                "baseColorTexture" : {
                    "index" : 1,
                    "texCoord" : 0
                },
                "metallicRoughnessTexture" : {
                    "index" : 2,
                    "texCoord" : 0
                }
            }
        }
    ],
    "meshes" : [
        {
            "name" : "Plane",
            "primitives" : [
                {
                    "attributes" : {
                        "POSITION" : 0,
                        "NORMAL" : 1,
                        "TEXCOORD_0" : 2
                    },
                    "indices" : 3,
                    "material" : 0
                }
            ]
        }
    ],
    "textures" : [
        {
            "source" : 0
        },
        {
            "source" : 1
        },
        {
            "source" : 2
        }
    ],
    "images" : [
        {
            "bufferView" : 4,
            "mimeType" : "image/png",
            "name" : "plane_Material.001_Height"
        },
        {
            "bufferView" : 5,
            "mimeType" : "image/png",
            "name" : "plane_Material.001_BaseColor"
        },
        {
            "bufferView" : 6,
            "mimeType" : "image/png",
            "name" : "plane_Material.001_Metallic.png-plane_Material.001_Roughness.png"
        }
    ],
    "accessors" : [
        {
            "bufferView" : 0,
            "componentType" : 5126,
            "count" : 4,
            "max" : [
                1,
                0,
                1
            ],
            "min" : [
                -1,
                0,
                -1
            ],
            "type" : "VEC3"
        },
        {
            "bufferView" : 1,
            "componentType" : 5126,
            "count" : 4,
            "type" : "VEC3"
        },
        {
            "bufferView" : 2,
            "componentType" : 5126,
            "count" : 4,
            "type" : "VEC2"
        },
        {
            "bufferView" : 3,
            "componentType" : 5123,
            "count" : 6,
            "type" : "SCALAR"
        }
    ],
    "bufferViews" : [
        {
            "buffer" : 0,
            "byteLength" : 48,
            "byteOffset" : 0
        },
        {
            "buffer" : 0,
            "byteLength" : 48,
            "byteOffset" : 48
        },
        {
            "buffer" : 0,
            "byteLength" : 32,
            "byteOffset" : 96
        },
        {
            "buffer" : 0,
            "byteLength" : 12,
            "byteOffset" : 128
        },
        {
            "buffer" : 0,
            "byteLength" : 70799,
            "byteOffset" : 140
        },
        {
            "buffer" : 0,
            "byteLength" : 433327,
            "byteOffset" : 70940
        },
        {
            "buffer" : 0,
            "byteLength" : 1122292,
            "byteOffset" : 504268
        }
    ],
    "buffers" : [
        {
            "byteLength" : 1626560,
            "uri" : "data:application/octet-stream;base64,"
        }
    ]
}
