{
    "asset" : {
        "generator" : "Khronos glTF Blender I/O v1.2.75",
        "version" : "2.0"
    },
    "scene" : 0,
    "scenes" : [
        {
            "name" : "Scene",
            "nodes" : [
                0,
                1,
                2,
                3,
                4,
                5,
                6,
                7,
                8,
                9,
                10,
                11
            ]
        }
    ],
    "nodes" : [
        {
            "mesh" : 0,
            "name" : "links",
            "scale" : [
                1,
                1,
                0.050000011920928955
            ],
            "translation" : [
                0,
                0,
                2
            ]
        },
        {
            "mesh" : 1,
            "name" : "rechts",
            "scale" : [
                1,
                1,
                0.050000011920928955
            ],
            "translation" : [
                0,
                0,
                -2
            ]
        },
        {
            "mesh" : 2,
            "name" : "mitte_oben",
            "scale" : [
                0.30000001192092896,
                0.30000001192092896,
                1
            ],
            "translation" : [
                0.33433055877685547,
                2.299999952316284,
                0
            ]
        },
        {
            "mesh" : 3,
            "name" : "Cylinder",
            "rotation" : [
                0.7071067690849304,
                0,
                0,
                0.7071067690849304
            ],
            "translation" : [
                0,
                -0.2948073744773865,
                0
            ]
        },
        {
            "mesh" : 4,
            "name" : "Cube",
            "scale" : [
                0.18017315864562988,
                0.18017315864562988,
                0.043918296694755554
            ],
            "translation" : [
                0,
                -0.2738637328147888,
                -1.891081690788269
            ]
        },
        {
            "mesh" : 5,
            "name" : "Cube.001",
            "scale" : [
                0.18017315864562988,
                0.18017315864562988,
                0.043918296694755554
            ],
            "translation" : [
                0,
                -0.2738637328147888,
                1.751839518547058
            ]
        },
        {
            "mesh" : 6,
            "name" : "stange",
            "rotation" : [
                0.004100681282579899,
                0.7070949077606201,
                -0.0041007124818861485,
                0.7070948481559753
            ],
            "scale" : [
                0.49647581577301025,
                0.6212069392204285,
                0.49647581577301025
            ],
            "translation" : [
                -0.004069626796990633,
                -0.30780231952667236,
                -2.2860467433929443
            ]
        },
        {
            "mesh" : 7,
            "name" : "pressplatte",
            "scale" : [
                0.2573843002319336,
                1,
                1
            ],
            "translation" : [
                0.20047250390052795,
                -0.08857131004333496,
                0
            ]
        },
        {
            "mesh" : 8,
            "name" : "pressplatte.001",
            "scale" : [
                0.2573843002319336,
                1,
                1
            ],
            "translation" : [
                0.20047250390052795,
                0.35067513585090637,
                0
            ]
        },
        {
            "mesh" : 9,
            "name" : "mitte_unten.001",
            "scale" : [
                0.30000001192092896,
                0.12351074814796448,
                1
            ],
            "translation" : [
                0.33433055877685547,
                1.9458270072937012,
                0
            ]
        },
        {
            "mesh" : 10,
            "name" : "mitte_unten.002",
            "scale" : [
                0.30000001192092896,
                0.27614015340805054,
                1
            ],
            "translation" : [
                0.33433055877685547,
                0.8788824081420898,
                0
            ]
        },
        {
            "mesh" : 11,
            "name" : "Sphere",
            "rotation" : [
                0,
                0,
                0.7029942274093628,
                0.7111955881118774
            ],
            "scale" : [
                -0.16119587421417236,
                -0.16119587421417236,
                -0.16119587421417236
            ],
            "translation" : [
                -0.004069596063345671,
                -0.3078022003173828,
                -2.2860469818115234
            ]
        }
    ],
    "materials" : [
        {
            "doubleSided" : true,
            "emissiveFactor" : [
                0,
                0,
                0
            ],
            "name" : "Material.001",
            "pbrMetallicRoughness" : {
                "baseColorFactor" : [
                    0.10000000149011612,
                    0.4000000059604645,
                    0.4000000059604645,
                    1
                ],
                "metallicFactor" : 1,
                "roughnessFactor" : 0.800000011920929
            }
        },
        {
            "doubleSided" : true,
            "emissiveFactor" : [
                0,
                0,
                0
            ],
            "name" : "faltbank_metall",
            "pbrMetallicRoughness" : {
                "baseColorFactor" : [
                    0.800000011920929,
                    0.800000011920929,
                    0.800000011920929,
                    1
                ],
                "metallicFactor" : 1,
                "roughnessFactor" : 0.800000011920929
            }
        }
    ],
    "meshes" : [
        {
            "name" : "Cube.001",
            "primitives" : [
                {
                    "attributes" : {
                        "POSITION" : 0,
                        "NORMAL" : 1,
                        "TEXCOORD_0" : 2
                    },
                    "indices" : 3,
                    "material" : 0
                }
            ]
        },
        {
            "name" : "Cube.002",
            "primitives" : [
                {
                    "attributes" : {
                        "POSITION" : 4,
                        "NORMAL" : 5,
                        "TEXCOORD_0" : 6
                    },
                    "indices" : 3,
                    "material" : 0
                }
            ]
        },
        {
            "name" : "Cube.003",
            "primitives" : [
                {
                    "attributes" : {
                        "POSITION" : 7,
                        "NORMAL" : 8,
                        "TEXCOORD_0" : 9
                    },
                    "indices" : 10,
                    "material" : 0
                }
            ]
        },
        {
            "name" : "Cylinder",
            "primitives" : [
                {
                    "attributes" : {
                        "POSITION" : 11,
                        "NORMAL" : 12,
                        "TEXCOORD_0" : 13
                    },
                    "indices" : 14,
                    "material" : 1
                }
            ]
        },
        {
            "name" : "Cube.005",
            "primitives" : [
                {
                    "attributes" : {
                        "POSITION" : 15,
                        "NORMAL" : 16,
                        "TEXCOORD_0" : 17
                    },
                    "indices" : 10,
                    "material" : 0
                }
            ]
        },
        {
            "name" : "Cube.006",
            "primitives" : [
                {
                    "attributes" : {
                        "POSITION" : 18,
                        "NORMAL" : 19,
                        "TEXCOORD_0" : 20
                    },
                    "indices" : 10,
                    "material" : 0
                }
            ]
        },
        {
            "name" : "Cylinder.001",
            "primitives" : [
                {
                    "attributes" : {
                        "POSITION" : 21,
                        "NORMAL" : 22,
                        "TEXCOORD_0" : 23
                    },
                    "indices" : 24,
                    "material" : 0
                }
            ]
        },
        {
            "name" : "Cube",
            "primitives" : [
                {
                    "attributes" : {
                        "POSITION" : 25,
                        "NORMAL" : 26,
                        "TEXCOORD_0" : 27
                    },
                    "indices" : 10,
                    "material" : 1
                }
            ]
        },
        {
            "name" : "Cube.007",
            "primitives" : [
                {
                    "attributes" : {
                        "POSITION" : 28,
                        "NORMAL" : 29,
                        "TEXCOORD_0" : 30
                    },
                    "indices" : 10,
                    "material" : 1
                }
            ]
        },
        {
            "name" : "Cube.008",
            "primitives" : [
                {
                    "attributes" : {
                        "POSITION" : 31,
                        "NORMAL" : 32,
                        "TEXCOORD_0" : 33
                    },
                    "indices" : 34,
                    "material" : 0
                }
            ]
        },
        {
            "name" : "Cube.009",
            "primitives" : [
                {
                    "attributes" : {
                        "POSITION" : 35,
                        "NORMAL" : 36,
                        "TEXCOORD_0" : 37
                    },
                    "indices" : 34,
                    "material" : 0
                }
            ]
        },
        {
            "name" : "Sphere",
            "primitives" : [
                {
                    "attributes" : {
                        "POSITION" : 38,
                        "NORMAL" : 39,
                        "TEXCOORD_0" : 40
                    },
                    "indices" : 41,
                    "material" : 1
                }
            ]
        }
    ],
    "accessors" : [
        {
            "bufferView" : 0,
            "componentType" : 5126,
            "count" : 158,
            "max" : [
                1,
                2.5,
                1
            ],
            "min" : [
                -1,
                -1,
                -1
            ],
            "type" : "VEC3"
        },
        {
            "bufferView" : 1,
            "componentType" : 5126,
            "count" : 158,
            "type" : "VEC3"
        },
        {
            "bufferView" : 2,
            "componentType" : 5126,
            "count" : 158,
            "type" : "VEC2"
        },
        {
            "bufferView" : 3,
            "componentType" : 5123,
            "count" : 312,
            "type" : "SCALAR"
        },
        {
            "bufferView" : 4,
            "componentType" : 5126,
            "count" : 158,
            "max" : [
                1,
                2.5,
                1
            ],
            "min" : [
                -1,
                -1,
                -1
            ],
            "type" : "VEC3"
        },
        {
            "bufferView" : 5,
            "componentType" : 5126,
            "count" : 158,
            "type" : "VEC3"
        },
        {
            "bufferView" : 6,
            "componentType" : 5126,
            "count" : 158,
            "type" : "VEC2"
        },
        {
            "bufferView" : 7,
            "componentType" : 5126,
            "count" : 24,
            "max" : [
                -0.08042311668395996,
                0.43860912322998047,
                1.9499998092651367
            ],
            "min" : [
                -0.8170454502105713,
                -1,
                -1.9500000476837158
            ],
            "type" : "VEC3"
        },
        {
            "bufferView" : 8,
            "componentType" : 5126,
            "count" : 24,
            "type" : "VEC3"
        },
        {
            "bufferView" : 9,
            "componentType" : 5126,
            "count" : 24,
            "type" : "VEC2"
        },
        {
            "bufferView" : 10,
            "componentType" : 5123,
            "count" : 36,
            "type" : "SCALAR"
        },
        {
            "bufferView" : 11,
            "componentType" : 5126,
            "count" : 42,
            "max" : [
                0.09749279171228409,
                1.934999942779541,
                0.09009689092636108
            ],
            "min" : [
                -0.09749279171228409,
                -1.934999942779541,
                -0.10000000149011612
            ],
            "type" : "VEC3"
        },
        {
            "bufferView" : 12,
            "componentType" : 5126,
            "count" : 42,
            "type" : "VEC3"
        },
        {
            "bufferView" : 13,
            "componentType" : 5126,
            "count" : 42,
            "type" : "VEC2"
        },
        {
            "bufferView" : 14,
            "componentType" : 5123,
            "count" : 72,
            "type" : "SCALAR"
        },
        {
            "bufferView" : 15,
            "componentType" : 5126,
            "count" : 24,
            "max" : [
                1,
                1,
                4.512027740478516
            ],
            "min" : [
                -1,
                -1,
                -14.787461280822754
            ],
            "type" : "VEC3"
        },
        {
            "bufferView" : 16,
            "componentType" : 5126,
            "count" : 24,
            "type" : "VEC3"
        },
        {
            "bufferView" : 17,
            "componentType" : 5126,
            "count" : 24,
            "type" : "VEC2"
        },
        {
            "bufferView" : 18,
            "componentType" : 5126,
            "count" : 24,
            "max" : [
                1,
                1,
                4.512027740478516
            ],
            "min" : [
                -1,
                -1,
                -1
            ],
            "type" : "VEC3"
        },
        {
            "bufferView" : 19,
            "componentType" : 5126,
            "count" : 24,
            "type" : "VEC3"
        },
        {
            "bufferView" : 20,
            "componentType" : 5126,
            "count" : 24,
            "type" : "VEC2"
        },
        {
            "bufferView" : 21,
            "componentType" : 5126,
            "count" : 122,
            "max" : [
                0.22840535640716553,
                3.870011329650879,
                0.17511986196041107
            ],
            "min" : [
                -0.20723092555999756,
                1.1563301086425781e-05,
                -0.2495940923690796
            ],
            "type" : "VEC3"
        },
        {
            "bufferView" : 22,
            "componentType" : 5126,
            "count" : 122,
            "type" : "VEC3"
        },
        {
            "bufferView" : 23,
            "componentType" : 5126,
            "count" : 122,
            "type" : "VEC2"
        },
        {
            "bufferView" : 24,
            "componentType" : 5123,
            "count" : 240,
            "type" : "SCALAR"
        },
        {
            "bufferView" : 25,
            "componentType" : 5126,
            "count" : 24,
            "max" : [
                1,
                1.3412933349609375,
                1.9500000476837158
            ],
            "min" : [
                -1,
                1.088571310043335,
                -1.9500000476837158
            ],
            "type" : "VEC3"
        },
        {
            "bufferView" : 26,
            "componentType" : 5126,
            "count" : 24,
            "type" : "VEC3"
        },
        {
            "bufferView" : 27,
            "componentType" : 5126,
            "count" : 24,
            "type" : "VEC2"
        },
        {
            "bufferView" : 28,
            "componentType" : 5126,
            "count" : 24,
            "max" : [
                1,
                1.3412933349609375,
                1.9500000476837158
            ],
            "min" : [
                -1,
                1.088571310043335,
                -1.9500000476837158
            ],
            "type" : "VEC3"
        },
        {
            "bufferView" : 29,
            "componentType" : 5126,
            "count" : 24,
            "type" : "VEC3"
        },
        {
            "bufferView" : 30,
            "componentType" : 5126,
            "count" : 24,
            "type" : "VEC2"
        },
        {
            "bufferView" : 31,
            "componentType" : 5126,
            "count" : 76,
            "max" : [
                -0.08042311668395996,
                0.43860912322998047,
                1.9499998092651367
            ],
            "min" : [
                -0.8170454502105713,
                -2.055356502532959,
                -1.9500000476837158
            ],
            "type" : "VEC3"
        },
        {
            "bufferView" : 32,
            "componentType" : 5126,
            "count" : 76,
            "type" : "VEC3"
        },
        {
            "bufferView" : 33,
            "componentType" : 5126,
            "count" : 76,
            "type" : "VEC2"
        },
        {
            "bufferView" : 34,
            "componentType" : 5123,
            "count" : 120,
            "type" : "SCALAR"
        },
        {
            "bufferView" : 35,
            "componentType" : 5126,
            "count" : 76,
            "max" : [
                -0.08042311668395996,
                0.43860912322998047,
                1.9499998092651367
            ],
            "min" : [
                -0.8170454502105713,
                -2.055356502532959,
                -1.9500000476837158
            ],
            "type" : "VEC3"
        },
        {
            "bufferView" : 36,
            "componentType" : 5126,
            "count" : 76,
            "type" : "VEC3"
        },
        {
            "bufferView" : 37,
            "componentType" : 5126,
            "count" : 76,
            "type" : "VEC2"
        },
        {
            "bufferView" : 38,
            "componentType" : 5126,
            "count" : 372,
            "max" : [
                -14.139118194580078,
                0.9183567762374878,
                1.0326145887374878
            ],
            "min" : [
                -15.871170043945312,
                -1.0816432237625122,
                -0.9673862457275391
            ],
            "type" : "VEC3"
        },
        {
            "bufferView" : 39,
            "componentType" : 5126,
            "count" : 372,
            "type" : "VEC3"
        },
        {
            "bufferView" : 40,
            "componentType" : 5126,
            "count" : 372,
            "type" : "VEC2"
        },
        {
            "bufferView" : 41,
            "componentType" : 5123,
            "count" : 540,
            "type" : "SCALAR"
        }
    ],
    "bufferViews" : [
        {
            "buffer" : 0,
            "byteLength" : 1896,
            "byteOffset" : 0
        },
        {
            "buffer" : 0,
            "byteLength" : 1896,
            "byteOffset" : 1896
        },
        {
            "buffer" : 0,
            "byteLength" : 1264,
            "byteOffset" : 3792
        },
        {
            "buffer" : 0,
            "byteLength" : 624,
            "byteOffset" : 5056
        },
        {
            "buffer" : 0,
            "byteLength" : 1896,
            "byteOffset" : 5680
        },
        {
            "buffer" : 0,
            "byteLength" : 1896,
            "byteOffset" : 7576
        },
        {
            "buffer" : 0,
            "byteLength" : 1264,
            "byteOffset" : 9472
        },
        {
            "buffer" : 0,
            "byteLength" : 288,
            "byteOffset" : 10736
        },
        {
            "buffer" : 0,
            "byteLength" : 288,
            "byteOffset" : 11024
        },
        {
            "buffer" : 0,
            "byteLength" : 192,
            "byteOffset" : 11312
        },
        {
            "buffer" : 0,
            "byteLength" : 72,
            "byteOffset" : 11504
        },
        {
            "buffer" : 0,
            "byteLength" : 504,
            "byteOffset" : 11576
        },
        {
            "buffer" : 0,
            "byteLength" : 504,
            "byteOffset" : 12080
        },
        {
            "buffer" : 0,
            "byteLength" : 336,
            "byteOffset" : 12584
        },
        {
            "buffer" : 0,
            "byteLength" : 144,
            "byteOffset" : 12920
        },
        {
            "buffer" : 0,
            "byteLength" : 288,
            "byteOffset" : 13064
        },
        {
            "buffer" : 0,
            "byteLength" : 288,
            "byteOffset" : 13352
        },
        {
            "buffer" : 0,
            "byteLength" : 192,
            "byteOffset" : 13640
        },
        {
            "buffer" : 0,
            "byteLength" : 288,
            "byteOffset" : 13832
        },
        {
            "buffer" : 0,
            "byteLength" : 288,
            "byteOffset" : 14120
        },
        {
            "buffer" : 0,
            "byteLength" : 192,
            "byteOffset" : 14408
        },
        {
            "buffer" : 0,
            "byteLength" : 1464,
            "byteOffset" : 14600
        },
        {
            "buffer" : 0,
            "byteLength" : 1464,
            "byteOffset" : 16064
        },
        {
            "buffer" : 0,
            "byteLength" : 976,
            "byteOffset" : 17528
        },
        {
            "buffer" : 0,
            "byteLength" : 480,
            "byteOffset" : 18504
        },
        {
            "buffer" : 0,
            "byteLength" : 288,
            "byteOffset" : 18984
        },
        {
            "buffer" : 0,
            "byteLength" : 288,
            "byteOffset" : 19272
        },
        {
            "buffer" : 0,
            "byteLength" : 192,
            "byteOffset" : 19560
        },
        {
            "buffer" : 0,
            "byteLength" : 288,
            "byteOffset" : 19752
        },
        {
            "buffer" : 0,
            "byteLength" : 288,
            "byteOffset" : 20040
        },
        {
            "buffer" : 0,
            "byteLength" : 192,
            "byteOffset" : 20328
        },
        {
            "buffer" : 0,
            "byteLength" : 912,
            "byteOffset" : 20520
        },
        {
            "buffer" : 0,
            "byteLength" : 912,
            "byteOffset" : 21432
        },
        {
            "buffer" : 0,
            "byteLength" : 608,
            "byteOffset" : 22344
        },
        {
            "buffer" : 0,
            "byteLength" : 240,
            "byteOffset" : 22952
        },
        {
            "buffer" : 0,
            "byteLength" : 912,
            "byteOffset" : 23192
        },
        {
            "buffer" : 0,
            "byteLength" : 912,
            "byteOffset" : 24104
        },
        {
            "buffer" : 0,
            "byteLength" : 608,
            "byteOffset" : 25016
        },
        {
            "buffer" : 0,
            "byteLength" : 4464,
            "byteOffset" : 25624
        },
        {
            "buffer" : 0,
            "byteLength" : 4464,
            "byteOffset" : 30088
        },
        {
            "buffer" : 0,
            "byteLength" : 2976,
            "byteOffset" : 34552
        },
        {
            "buffer" : 0,
            "byteLength" : 1080,
            "byteOffset" : 37528
        }
    ],
    "buffers" : [
        {
            "byteLength" : 38608,
            "uri" : "data:application/octet-stream;base64,"
        }
    ]
}
