# Blender v2.83.2 OBJ File: 'foeder_standart_weiter_CUT.blend'
# www.blender.org
mtllib foeder_standart_weiter_CUT.mtl
v 0.811026 -0.617545 0.061373
v 0.811026 0.565858 0.061373
v 0.811026 -0.617545 -0.061414
v 0.811026 0.565858 -0.061414
v 0.894371 -0.617545 0.061373
v 0.894371 0.565858 0.061373
v 0.894371 -0.617545 -0.061414
v 0.894371 0.565858 -0.061414
v -0.877104 -0.617545 0.061373
v -0.877104 0.565858 0.061373
v -0.877104 -0.617545 -0.061414
v -0.877104 0.565858 -0.061414
v -0.793759 -0.617545 0.061373
v -0.793759 0.565858 0.061373
v -0.793759 -0.617545 -0.061414
v -0.793759 0.565858 -0.061414
v -0.839490 -0.421162 0.061373
v 0.848639 -0.421162 0.061373
v -0.839490 -0.421162 -0.061414
v 0.848639 -0.421162 -0.061414
v -0.839490 -0.473746 0.061373
v 0.848639 -0.473746 0.061373
v -0.839490 -0.473746 -0.061414
v 0.848639 -0.473746 -0.061414
v -0.839490 0.412047 0.061373
v 0.848639 0.412047 0.061373
v -0.839490 0.412047 -0.061414
v 0.848639 0.412047 -0.061414
v -0.839490 0.359464 0.061373
v 0.848639 0.359464 0.061373
v -0.839490 0.359464 -0.061414
v 0.848639 0.359464 -0.061414
v -0.898612 -0.607930 0.152807
v -0.898612 -0.607930 -0.153692
v -0.775825 -0.607930 0.152807
v -0.775825 -0.607930 -0.153692
v -0.898612 -0.635673 0.152807
v -0.898612 -0.635673 -0.153692
v -0.775825 -0.635673 0.152807
v -0.775825 -0.635673 -0.153692
v 0.791598 -0.607930 0.152807
v 0.791598 -0.607930 -0.153692
v 0.914385 -0.607930 0.152807
v 0.914385 -0.607930 -0.153692
v 0.791598 -0.635673 0.152807
v 0.791598 -0.635673 -0.153692
v 0.914385 -0.635673 0.152807
v 0.914385 -0.635673 -0.153692
vt 0.625000 0.000000
vt 0.375000 0.250000
vt 0.375000 0.000000
vt 0.625000 0.250000
vt 0.375000 0.500000
vt 0.625000 0.500000
vt 0.375000 0.750000
vt 0.625000 0.750000
vt 0.375000 1.000000
vt 0.125000 0.750000
vt 0.125000 0.500000
vt 0.875000 0.500000
vt 0.625000 0.000000
vt 0.375000 0.250000
vt 0.375000 0.000000
vt 0.625000 0.250000
vt 0.375000 0.500000
vt 0.625000 0.500000
vt 0.375000 0.750000
vt 0.625000 0.750000
vt 0.375000 1.000000
vt 0.125000 0.750000
vt 0.125000 0.500000
vt 0.875000 0.500000
vt 0.625000 0.000000
vt 0.375000 0.250000
vt 0.375000 0.000000
vt 0.625000 0.250000
vt 0.375000 0.500000
vt 0.625000 0.500000
vt 0.375000 0.750000
vt 0.625000 0.750000
vt 0.375000 1.000000
vt 0.125000 0.750000
vt 0.125000 0.500000
vt 0.875000 0.500000
vt 0.625000 0.000000
vt 0.375000 0.250000
vt 0.375000 0.000000
vt 0.625000 0.250000
vt 0.375000 0.500000
vt 0.625000 0.500000
vt 0.375000 0.750000
vt 0.625000 1.000000
vt 0.375000 1.000000
vt 0.125000 0.750000
vt 0.125000 0.500000
vt 0.875000 0.500000
vt 0.625000 0.750000
vt 0.625000 0.000000
vt 0.375000 0.250000
vt 0.375000 0.000000
vt 0.625000 0.250000
vt 0.375000 0.500000
vt 0.625000 0.500000
vt 0.375000 0.750000
vt 0.625000 0.750000
vt 0.375000 1.000000
vt 0.125000 0.750000
vt 0.125000 0.500000
vt 0.875000 0.500000
vt 0.625000 0.000000
vt 0.375000 0.250000
vt 0.375000 0.000000
vt 0.625000 0.250000
vt 0.375000 0.500000
vt 0.625000 0.500000
vt 0.375000 0.750000
vt 0.625000 0.750000
vt 0.375000 1.000000
vt 0.125000 0.750000
vt 0.125000 0.500000
vt 0.875000 0.500000
vt 0.625000 1.000000
vt 0.875000 0.750000
vt 0.625000 1.000000
vt 0.875000 0.750000
vt 0.625000 1.000000
vt 0.875000 0.750000
vt 0.875000 0.750000
vt 0.625000 1.000000
vt 0.875000 0.750000
vt 0.625000 1.000000
vt 0.875000 0.750000
vn -1.0000 0.0000 0.0000
vn 0.0000 0.0000 -1.0000
vn 1.0000 0.0000 0.0000
vn 0.0000 0.0000 1.0000
vn 0.0000 -1.0000 0.0000
vn 0.0000 1.0000 0.0000
usemtl None
s off
f 2/1/1 3/2/1 1/3/1
f 4/4/2 7/5/2 3/2/2
f 8/6/3 5/7/3 7/5/3
f 6/8/4 1/9/4 5/7/4
f 7/5/5 1/10/5 3/11/5
f 4/12/6 6/8/6 8/6/6
f 10/13/1 11/14/1 9/15/1
f 12/16/2 15/17/2 11/14/2
f 16/18/3 13/19/3 15/17/3
f 14/20/4 9/21/4 13/19/4
f 15/17/5 9/22/5 11/23/5
f 12/24/6 14/20/6 16/18/6
f 18/25/6 19/26/6 17/27/6
f 20/28/2 23/29/2 19/26/2
f 24/30/5 21/31/5 23/29/5
f 22/32/4 17/33/4 21/31/4
f 23/29/1 17/34/1 19/35/1
f 20/36/3 22/32/3 24/30/3
f 26/37/6 27/38/6 25/39/6
f 28/40/2 31/41/2 27/38/2
f 32/42/5 29/43/5 31/41/5
f 29/43/4 26/44/4 25/45/4
f 31/41/1 25/46/1 27/47/1
f 28/48/3 30/49/3 32/42/3
f 34/50/5 35/51/5 33/52/5
f 36/53/1 39/54/1 35/51/1
f 40/55/6 37/56/6 39/54/6
f 38/57/3 33/58/3 37/56/3
f 39/54/2 33/59/2 35/60/2
f 36/61/4 38/57/4 40/55/4
f 42/62/5 43/63/5 41/64/5
f 44/65/1 47/66/1 43/63/1
f 48/67/6 45/68/6 47/66/6
f 46/69/3 41/70/3 45/68/3
f 47/66/2 41/71/2 43/72/2
f 44/73/4 46/69/4 48/67/4
f 2/1/1 4/4/1 3/2/1
f 4/4/2 8/6/2 7/5/2
f 8/6/3 6/8/3 5/7/3
f 6/8/4 2/74/4 1/9/4
f 7/5/5 5/7/5 1/10/5
f 4/12/6 2/75/6 6/8/6
f 10/13/1 12/16/1 11/14/1
f 12/16/2 16/18/2 15/17/2
f 16/18/3 14/20/3 13/19/3
f 14/20/4 10/76/4 9/21/4
f 15/17/5 13/19/5 9/22/5
f 12/24/6 10/77/6 14/20/6
f 18/25/6 20/28/6 19/26/6
f 20/28/2 24/30/2 23/29/2
f 24/30/5 22/32/5 21/31/5
f 22/32/4 18/78/4 17/33/4
f 23/29/1 21/31/1 17/34/1
f 20/36/3 18/79/3 22/32/3
f 26/37/6 28/40/6 27/38/6
f 28/40/2 32/42/2 31/41/2
f 32/42/5 30/49/5 29/43/5
f 29/43/4 30/49/4 26/44/4
f 31/41/1 29/43/1 25/46/1
f 28/48/3 26/80/3 30/49/3
f 34/50/5 36/53/5 35/51/5
f 36/53/1 40/55/1 39/54/1
f 40/55/6 38/57/6 37/56/6
f 38/57/3 34/81/3 33/58/3
f 39/54/2 37/56/2 33/59/2
f 36/61/4 34/82/4 38/57/4
f 42/62/5 44/65/5 43/63/5
f 44/65/1 48/67/1 47/66/1
f 48/67/6 46/69/6 45/68/6
f 46/69/3 42/83/3 41/70/3
f 47/66/2 45/68/2 41/71/2
f 44/73/4 42/84/4 46/69/4
v -0.813360 0.538092 -1.000000
v -0.813360 0.802134 -1.000000
v 0.853369 0.538092 -1.000000
v 0.853369 0.802134 -1.000000
v -0.813360 0.538092 1.000000
v -0.813360 0.802134 1.000000
v 0.853369 0.538092 1.000000
v 0.853369 0.802134 1.000000
vt 0.567262 0.273330
vt 0.600267 0.481671
vt 0.600267 0.273330
vt 0.375000 0.080429
vt 0.625000 0.168453
vt 0.375000 0.168453
vt 0.375000 0.581547
vt 0.125000 0.669571
vt 0.125000 0.581547
vt 0.625000 0.581547
vt 0.375000 0.669571
vt 0.600267 0.768329
vt 0.567262 0.976670
vt 0.600267 0.976670
vt 0.875000 0.581547
vt 0.625000 0.669571
vt 0.567262 0.481671
vt 0.625000 0.080429
vt 0.567261 0.768329
vt 0.875000 0.669571
vn 0.0000 0.0000 1.0000
vn 1.0000 0.0000 0.0000
vn 0.0000 1.0000 0.0000
vn -1.0000 0.0000 0.0000
vn 0.0000 -0.0000 -1.0000
vn -0.0000 -1.0000 0.0000
usemtl None
s off
f 53/85/7 56/86/7 54/87/7
f 49/88/8 54/89/8 53/90/8
f 55/91/9 49/92/9 53/93/9
f 56/94/10 51/95/10 55/91/10
f 52/96/11 49/97/11 50/98/11
f 54/99/12 52/100/12 56/94/12
f 53/85/7 55/101/7 56/86/7
f 49/88/8 50/102/8 54/89/8
f 55/91/9 51/95/9 49/92/9
f 56/94/10 52/100/10 51/95/10
f 52/96/11 51/103/11 49/97/11
f 54/99/12 50/104/12 52/100/12
v -0.917846 0.787321 -1.000000
v -0.917846 0.712021 -1.000000
v -0.917846 0.552858 -1.000000
v 0.957855 0.552858 -1.000000
v 0.957855 0.787321 -1.000000
v -0.917846 0.787321 1.000000
v -0.917846 0.552858 1.000000
v 0.957855 0.552858 1.000000
v 0.957855 0.787321 1.000000
vt 0.569107 0.260269
vt 0.598415 0.494732
vt 0.598415 0.260269
vt 0.544710 0.080290
vt 0.625000 0.168825
vt 0.375000 0.168825
vt 0.375000 0.581175
vt 0.125000 0.669710
vt 0.125000 0.581175
vt 0.625000 0.581175
vt 0.375000 0.669710
vt 0.569107 0.755268
vt 0.569107 0.989731
vt 0.589003 0.989731
vt 0.875000 0.581175
vt 0.625000 0.669711
vt 0.569107 0.494732
vt 0.375000 0.080290
vt 0.625000 0.080290
vt 0.598415 0.989731
vt 0.598415 0.755268
vt 0.875000 0.669710
vn -0.0000 -0.0000 1.0000
vn 1.0000 0.0000 -0.0000
vn 0.0000 1.0000 -0.0000
vn -1.0000 0.0000 -0.0000
vn -0.0000 -0.0000 -1.0000
vn -0.0000 -1.0000 -0.0000
usemtl None
s off
f 63/105/13 65/106/13 62/107/13
f 58/108/14 62/109/14 63/110/14
f 64/111/15 59/112/15 63/113/15
f 65/114/16 60/115/16 64/111/16
f 60/116/17 59/117/17 58/118/17
f 62/119/18 61/120/18 65/114/18
f 63/105/13 64/121/13 65/106/13
f 63/110/14 59/122/14 58/108/14
f 58/108/14 57/123/14 62/109/14
f 64/111/15 60/115/15 59/112/15
f 65/114/16 61/120/16 60/115/16
f 58/118/17 57/124/17 61/125/17
f 61/125/17 60/116/17 58/118/17
f 62/119/18 57/126/18 61/120/18
