{
    "asset" : {
        "generator" : "Khronos glTF Blender I/O v1.2.75",
        "version" : "2.0"
    },
    "scene" : 0,
    "scenes" : [
        {
            "name" : "Scene",
            "nodes" : [
                0,
                1,
                2
            ]
        }
    ],
    "nodes" : [
        {
            "mesh" : 0,
            "name" : "laufband inner",
            "translation" : [
                0.02000439167022705,
                0.9434012174606323,
                2.012697458267212
            ]
        },
        {
            "mesh" : 1,
            "name" : "gitter.001",
            "translation" : [
                0.012489771470427513,
                0,
                -0.5
            ]
        },
        {
            "mesh" : 2,
            "name" : "laufband",
            "translation" : [
                0.02000439167022705,
                0.9434012174606323,
                2
            ]
        }
    ],
    "materials" : [
        {
            "doubleSided" : true,
            "emissiveFactor" : [
                0,
                0,
                0
            ],
            "name" : "laufband_gummi",
            "pbrMetallicRoughness" : {
                "baseColorFactor" : [
                    0.04483740031719208,
                    0.04483740031719208,
                    0.04483740031719208,
                    1
                ],
                "metallicFactor" : 0,
                "roughnessFactor" : 0.800000011920929
            }
        },
        {
            "doubleSided" : true,
            "emissiveFactor" : [
                0,
                0,
                0
            ],
            "name" : "stange_metall",
            "pbrMetallicRoughness" : {
                "baseColorFactor" : [
                    0.5,
                    0.5,
                    0.5,
                    1
                ],
                "metallicFactor" : 1,
                "roughnessFactor" : 0.800000011920929
            }
        },
        {
            "doubleSided" : true,
            "emissiveFactor" : [
                0,
                0,
                0
            ],
            "name" : "laufband_metallisch",
            "pbrMetallicRoughness" : {
                "baseColorFactor" : [
                    0.5,
                    0.5,
                    0.5,
                    1
                ],
                "metallicFactor" : 0,
                "roughnessFactor" : 0.5
            }
        }
    ],
    "meshes" : [
        {
            "name" : "Cube.002",
            "primitives" : [
                {
                    "attributes" : {
                        "POSITION" : 0,
                        "NORMAL" : 1,
                        "TEXCOORD_0" : 2
                    },
                    "indices" : 3,
                    "material" : 0
                }
            ]
        },
        {
            "name" : "Cube.008",
            "primitives" : [
                {
                    "attributes" : {
                        "POSITION" : 4,
                        "NORMAL" : 5,
                        "TEXCOORD_0" : 6
                    },
                    "indices" : 7,
                    "material" : 1
                }
            ]
        },
        {
            "name" : "Cube.001",
            "primitives" : [
                {
                    "attributes" : {
                        "POSITION" : 8,
                        "NORMAL" : 9,
                        "TEXCOORD_0" : 10
                    },
                    "indices" : 3,
                    "material" : 2
                }
            ]
        }
    ],
    "accessors" : [
        {
            "bufferView" : 0,
            "componentType" : 5126,
            "count" : 122,
            "max" : [
                0.8333644866943359,
                -0.1412675380706787,
                -1.012697458267212
            ],
            "min" : [
                -0.8333644866943359,
                -0.40530914068222046,
                -2.9584877490997314
            ],
            "type" : "VEC3"
        },
        {
            "bufferView" : 1,
            "componentType" : 5126,
            "count" : 122,
            "type" : "VEC3"
        },
        {
            "bufferView" : 2,
            "componentType" : 5126,
            "count" : 122,
            "type" : "VEC2"
        },
        {
            "bufferView" : 3,
            "componentType" : 5123,
            "count" : 222,
            "type" : "SCALAR"
        },
        {
            "bufferView" : 4,
            "componentType" : 5126,
            "count" : 144,
            "max" : [
                0.907729983329773,
                0.5658582448959351,
                0.15280695259571075
            ],
            "min" : [
                -0.9052673578262329,
                -0.6356732845306396,
                -0.15369237959384918
            ],
            "type" : "VEC3"
        },
        {
            "bufferView" : 5,
            "componentType" : 5126,
            "count" : 144,
            "type" : "VEC3"
        },
        {
            "bufferView" : 6,
            "componentType" : 5126,
            "count" : 144,
            "type" : "VEC2"
        },
        {
            "bufferView" : 7,
            "componentType" : 5123,
            "count" : 216,
            "type" : "SCALAR"
        },
        {
            "bufferView" : 8,
            "componentType" : 5126,
            "count" : 122,
            "max" : [
                0.9378502368927002,
                -0.15608057379722595,
                -0.9999999403953552
            ],
            "min" : [
                -0.9378502368927002,
                -0.3905431628227234,
                -2.931387424468994
            ],
            "type" : "VEC3"
        },
        {
            "bufferView" : 9,
            "componentType" : 5126,
            "count" : 122,
            "type" : "VEC3"
        },
        {
            "bufferView" : 10,
            "componentType" : 5126,
            "count" : 122,
            "type" : "VEC2"
        }
    ],
    "bufferViews" : [
        {
            "buffer" : 0,
            "byteLength" : 1464,
            "byteOffset" : 0
        },
        {
            "buffer" : 0,
            "byteLength" : 1464,
            "byteOffset" : 1464
        },
        {
            "buffer" : 0,
            "byteLength" : 976,
            "byteOffset" : 2928
        },
        {
            "buffer" : 0,
            "byteLength" : 444,
            "byteOffset" : 3904
        },
        {
            "buffer" : 0,
            "byteLength" : 1728,
            "byteOffset" : 4348
        },
        {
            "buffer" : 0,
            "byteLength" : 1728,
            "byteOffset" : 6076
        },
        {
            "buffer" : 0,
            "byteLength" : 1152,
            "byteOffset" : 7804
        },
        {
            "buffer" : 0,
            "byteLength" : 432,
            "byteOffset" : 8956
        },
        {
            "buffer" : 0,
            "byteLength" : 1464,
            "byteOffset" : 9388
        },
        {
            "buffer" : 0,
            "byteLength" : 1464,
            "byteOffset" : 10852
        },
        {
            "buffer" : 0,
            "byteLength" : 976,
            "byteOffset" : 12316
        }
    ],
    "buffers" : [
        {
            "byteLength" : 13292,
            "uri" : "data:application/octet-stream;base64,"
        }
    ]
}
