{
    "asset" : {
        "generator" : "Khronos glTF Blender I/O v1.2.75",
        "version" : "2.0"
    },
    "scene" : 0,
    "scenes" : [
        {
            "name" : "Scene",
            "nodes" : [
                0,
                1,
                2
            ]
        }
    ],
    "nodes" : [
        {
            "mesh" : 0,
            "name" : "gitter",
            "translation" : [
                0.00665532099083066,
                0,
                0
            ]
        },
        {
            "mesh" : 1,
            "name" : "laufband inner",
            "translation" : [
                0.02000439167022705,
                0.9434012174606323,
                0.012697532773017883
            ]
        },
        {
            "mesh" : 2,
            "name" : "laufband",
            "translation" : [
                0.02000439167022705,
                0.9434012174606323,
                0
            ]
        }
    ],
    "materials" : [
        {
            "doubleSided" : true,
            "emissiveFactor" : [
                0,
                0,
                0
            ],
            "name" : "stange_metall",
            "pbrMetallicRoughness" : {
                "baseColorFactor" : [
                    0.5,
                    0.5,
                    0.5,
                    1
                ],
                "metallicFactor" : 1,
                "roughnessFactor" : 0.800000011920929
            }
        },
        {
            "doubleSided" : true,
            "emissiveFactor" : [
                0,
                0,
                0
            ],
            "name" : "laufband_gummi",
            "pbrMetallicRoughness" : {
                "baseColorFactor" : [
                    0.04483740031719208,
                    0.04483740031719208,
                    0.04483740031719208,
                    1
                ],
                "metallicFactor" : 0,
                "roughnessFactor" : 0.800000011920929
            }
        },
        {
            "doubleSided" : true,
            "emissiveFactor" : [
                0,
                0,
                0
            ],
            "name" : "laufband_metallisch",
            "pbrMetallicRoughness" : {
                "baseColorFactor" : [
                    0.5,
                    0.5,
                    0.5,
                    1
                ],
                "metallicFactor" : 0,
                "roughnessFactor" : 0.5
            }
        }
    ],
    "meshes" : [
        {
            "name" : "Cube",
            "primitives" : [
                {
                    "attributes" : {
                        "POSITION" : 0,
                        "NORMAL" : 1,
                        "TEXCOORD_0" : 2
                    },
                    "indices" : 3,
                    "material" : 0
                }
            ]
        },
        {
            "name" : "Cube.002",
            "primitives" : [
                {
                    "attributes" : {
                        "POSITION" : 4,
                        "NORMAL" : 5,
                        "TEXCOORD_0" : 6
                    },
                    "indices" : 7,
                    "material" : 1
                }
            ]
        },
        {
            "name" : "Cube.001",
            "primitives" : [
                {
                    "attributes" : {
                        "POSITION" : 8,
                        "NORMAL" : 9,
                        "TEXCOORD_0" : 10
                    },
                    "indices" : 11,
                    "material" : 2
                }
            ]
        }
    ],
    "accessors" : [
        {
            "bufferView" : 0,
            "componentType" : 5126,
            "count" : 144,
            "max" : [
                0.9077299237251282,
                0.5658581256866455,
                0.15280695259571075
            ],
            "min" : [
                -0.9052674174308777,
                -0.6356734037399292,
                -0.15369239449501038
            ],
            "type" : "VEC3"
        },
        {
            "bufferView" : 1,
            "componentType" : 5126,
            "count" : 144,
            "type" : "VEC3"
        },
        {
            "bufferView" : 2,
            "componentType" : 5126,
            "count" : 144,
            "type" : "VEC2"
        },
        {
            "bufferView" : 3,
            "componentType" : 5123,
            "count" : 216,
            "type" : "SCALAR"
        },
        {
            "bufferView" : 4,
            "componentType" : 5126,
            "count" : 24,
            "max" : [
                0.8333644866943359,
                -0.14126752316951752,
                0.9873025417327881
            ],
            "min" : [
                -0.8333644866943359,
                -0.40530914068222046,
                -1.0126975774765015
            ],
            "type" : "VEC3"
        },
        {
            "bufferView" : 5,
            "componentType" : 5126,
            "count" : 24,
            "type" : "VEC3"
        },
        {
            "bufferView" : 6,
            "componentType" : 5126,
            "count" : 24,
            "type" : "VEC2"
        },
        {
            "bufferView" : 7,
            "componentType" : 5123,
            "count" : 36,
            "type" : "SCALAR"
        },
        {
            "bufferView" : 8,
            "componentType" : 5126,
            "count" : 26,
            "max" : [
                0.9378502368927002,
                -0.15608055889606476,
                1.0000001192092896
            ],
            "min" : [
                -0.9378502368927002,
                -0.3905431628227234,
                -1.0000001192092896
            ],
            "type" : "VEC3"
        },
        {
            "bufferView" : 9,
            "componentType" : 5126,
            "count" : 26,
            "type" : "VEC3"
        },
        {
            "bufferView" : 10,
            "componentType" : 5126,
            "count" : 26,
            "type" : "VEC2"
        },
        {
            "bufferView" : 11,
            "componentType" : 5123,
            "count" : 42,
            "type" : "SCALAR"
        }
    ],
    "bufferViews" : [
        {
            "buffer" : 0,
            "byteLength" : 1728,
            "byteOffset" : 0
        },
        {
            "buffer" : 0,
            "byteLength" : 1728,
            "byteOffset" : 1728
        },
        {
            "buffer" : 0,
            "byteLength" : 1152,
            "byteOffset" : 3456
        },
        {
            "buffer" : 0,
            "byteLength" : 432,
            "byteOffset" : 4608
        },
        {
            "buffer" : 0,
            "byteLength" : 288,
            "byteOffset" : 5040
        },
        {
            "buffer" : 0,
            "byteLength" : 288,
            "byteOffset" : 5328
        },
        {
            "buffer" : 0,
            "byteLength" : 192,
            "byteOffset" : 5616
        },
        {
            "buffer" : 0,
            "byteLength" : 72,
            "byteOffset" : 5808
        },
        {
            "buffer" : 0,
            "byteLength" : 312,
            "byteOffset" : 5880
        },
        {
            "buffer" : 0,
            "byteLength" : 312,
            "byteOffset" : 6192
        },
        {
            "buffer" : 0,
            "byteLength" : 208,
            "byteOffset" : 6504
        },
        {
            "buffer" : 0,
            "byteLength" : 84,
            "byteOffset" : 6712
        }
    ],
    "buffers" : [
        {
            "byteLength" : 6796,
            "uri" : "data:application/octet-stream;base64,"
        }
    ]
}
