{
    "asset" : {
        "generator" : "Khronos glTF Blender I/O v1.2.75",
        "version" : "2.0"
    },
    "scene" : 0,
    "scenes" : [
        {
            "name" : "Scene",
            "nodes" : [
                0,
                1,
                2
            ]
        }
    ],
    "nodes" : [
        {
            "mesh" : 0,
            "name" : "spender",
            "translation" : [
                -0.02974557876586914,
                0.04999423027038574,
                0.07840204238891602
            ]
        },
        {
            "mesh" : 1,
            "name" : "rohr",
            "rotation" : [
                -0.3826834559440613,
                0,
                0,
                0.9238795042037964
            ],
            "translation" : [
                -0.02974557876586914,
                -2.9109084606170654,
                0.7216445803642273
            ]
        },
        {
            "mesh" : 2,
            "name" : "Cube",
            "scale" : [
                1.5,
                0.125,
                1
            ],
            "translation" : [
                -0.02974557876586914,
                0.6245903968811035,
                0.07840204238891602
            ]
        }
    ],
    "materials" : [
        {
            "doubleSided" : true,
            "emissiveFactor" : [
                0,
                0,
                0
            ],
            "name" : "spender_base",
            "pbrMetallicRoughness" : {
                "baseColorFactor" : [
                    0.06130186840891838,
                    0.18949268758296967,
                    0.27026525139808655,
                    1
                ],
                "metallicFactor" : 0,
                "roughnessFactor" : 0.5
            }
        },
        {
            "doubleSided" : true,
            "emissiveFactor" : [
                0,
                0,
                0
            ],
            "name" : "rohr_metall",
            "pbrMetallicRoughness" : {
                "baseColorFactor" : [
                    0.800000011920929,
                    0.800000011920929,
                    0.800000011920929,
                    1
                ],
                "metallicFactor" : 1,
                "roughnessFactor" : 0.9454545378684998
            }
        }
    ],
    "meshes" : [
        {
            "name" : "Cylinder",
            "primitives" : [
                {
                    "attributes" : {
                        "POSITION" : 0,
                        "NORMAL" : 1,
                        "TEXCOORD_0" : 2
                    },
                    "indices" : 3,
                    "material" : 0
                }
            ]
        },
        {
            "name" : "Cylinder.001",
            "primitives" : [
                {
                    "attributes" : {
                        "POSITION" : 4,
                        "NORMAL" : 5,
                        "TEXCOORD_0" : 6
                    },
                    "indices" : 7,
                    "material" : 1
                }
            ]
        },
        {
            "name" : "Cube",
            "primitives" : [
                {
                    "attributes" : {
                        "POSITION" : 8,
                        "NORMAL" : 9,
                        "TEXCOORD_0" : 10
                    },
                    "indices" : 11,
                    "material" : 1
                }
            ]
        }
    ],
    "accessors" : [
        {
            "bufferView" : 0,
            "componentType" : 5126,
            "count" : 352,
            "max" : [
                0.9521645903587341,
                2.264275074005127,
                0.9521645903587341
            ],
            "min" : [
                -0.9521645903587341,
                -2.9933156967163086,
                -0.9521645903587341
            ],
            "type" : "VEC3"
        },
        {
            "bufferView" : 1,
            "componentType" : 5126,
            "count" : 352,
            "type" : "VEC3"
        },
        {
            "bufferView" : 2,
            "componentType" : 5126,
            "count" : 352,
            "type" : "VEC2"
        },
        {
            "bufferView" : 3,
            "componentType" : 5123,
            "count" : 516,
            "type" : "SCALAR"
        },
        {
            "bufferView" : 4,
            "componentType" : 5126,
            "count" : 289,
            "max" : [
                0.18000000715255737,
                1,
                0.18000000715255737
            ],
            "min" : [
                -0.18000000715255737,
                -1,
                -0.18000000715255737
            ],
            "type" : "VEC3"
        },
        {
            "bufferView" : 5,
            "componentType" : 5126,
            "count" : 289,
            "type" : "VEC3"
        },
        {
            "bufferView" : 6,
            "componentType" : 5126,
            "count" : 289,
            "type" : "VEC2"
        },
        {
            "bufferView" : 7,
            "componentType" : 5123,
            "count" : 444,
            "type" : "SCALAR"
        },
        {
            "bufferView" : 8,
            "componentType" : 5126,
            "count" : 154,
            "max" : [
                1,
                1,
                1
            ],
            "min" : [
                -1,
                -1,
                -1
            ],
            "type" : "VEC3"
        },
        {
            "bufferView" : 9,
            "componentType" : 5126,
            "count" : 154,
            "type" : "VEC3"
        },
        {
            "bufferView" : 10,
            "componentType" : 5126,
            "count" : 154,
            "type" : "VEC2"
        },
        {
            "bufferView" : 11,
            "componentType" : 5123,
            "count" : 330,
            "type" : "SCALAR"
        }
    ],
    "bufferViews" : [
        {
            "buffer" : 0,
            "byteLength" : 4224,
            "byteOffset" : 0
        },
        {
            "buffer" : 0,
            "byteLength" : 4224,
            "byteOffset" : 4224
        },
        {
            "buffer" : 0,
            "byteLength" : 2816,
            "byteOffset" : 8448
        },
        {
            "buffer" : 0,
            "byteLength" : 1032,
            "byteOffset" : 11264
        },
        {
            "buffer" : 0,
            "byteLength" : 3468,
            "byteOffset" : 12296
        },
        {
            "buffer" : 0,
            "byteLength" : 3468,
            "byteOffset" : 15764
        },
        {
            "buffer" : 0,
            "byteLength" : 2312,
            "byteOffset" : 19232
        },
        {
            "buffer" : 0,
            "byteLength" : 888,
            "byteOffset" : 21544
        },
        {
            "buffer" : 0,
            "byteLength" : 1848,
            "byteOffset" : 22432
        },
        {
            "buffer" : 0,
            "byteLength" : 1848,
            "byteOffset" : 24280
        },
        {
            "buffer" : 0,
            "byteLength" : 1232,
            "byteOffset" : 26128
        },
        {
            "buffer" : 0,
            "byteLength" : 660,
            "byteOffset" : 27360
        }
    ],
    "buffers" : [
        {
            "byteLength" : 28020,
            "uri" : "data:application/octet-stream;base64,"
        }
    ]
}
