{
    "asset" : {
        "generator" : "Khronos glTF Blender I/O v1.2.75",
        "version" : "2.0"
    },
    "scene" : 0,
    "scenes" : [
        {
            "name" : "Scene",
            "nodes" : [
                0,
                1
            ]
        }
    ],
    "nodes" : [
        {
            "mesh" : 0,
            "name" : "Cylinder"
        },
        {
            "mesh" : 1,
            "name" : "Cylinder.001",
            "translation" : [
                0,
                1.4700000286102295,
                0
            ]
        }
    ],
    "materials" : [
        {
            "doubleSided" : true,
            "emissiveFactor" : [
                0,
                0,
                0
            ],
            "name" : "schraube_metall",
            "pbrMetallicRoughness" : {
                "baseColorFactor" : [
                    0.800000011920929,
                    0.800000011920929,
                    0.800000011920929,
                    1
                ],
                "metallicFactor" : 1,
                "roughnessFactor" : 0.4000000059604645
            }
        },
        {
            "doubleSided" : true,
            "emissiveFactor" : [
                0,
                0,
                0
            ],
            "name" : "mutter_metall",
            "pbrMetallicRoughness" : {
                "baseColorFactor" : [
                    0.800000011920929,
                    0.800000011920929,
                    0.800000011920929,
                    1
                ],
                "metallicFactor" : 1,
                "roughnessFactor" : 0.4000000059604645
            }
        }
    ],
    "meshes" : [
        {
            "name" : "Cylinder",
            "primitives" : [
                {
                    "attributes" : {
                        "POSITION" : 0,
                        "NORMAL" : 1,
                        "TEXCOORD_0" : 2
                    },
                    "indices" : 3,
                    "material" : 0
                }
            ]
        },
        {
            "name" : "Cylinder.001",
            "primitives" : [
                {
                    "attributes" : {
                        "POSITION" : 4,
                        "NORMAL" : 5,
                        "TEXCOORD_0" : 6
                    },
                    "indices" : 7,
                    "material" : 1
                }
            ]
        }
    ],
    "accessors" : [
        {
            "bufferView" : 0,
            "componentType" : 5126,
            "count" : 544,
            "max" : [
                1,
                1,
                1
            ],
            "min" : [
                -1,
                -1.210174798965454,
                -1
            ],
            "type" : "VEC3"
        },
        {
            "bufferView" : 1,
            "componentType" : 5126,
            "count" : 544,
            "type" : "VEC3"
        },
        {
            "bufferView" : 2,
            "componentType" : 5126,
            "count" : 544,
            "type" : "VEC2"
        },
        {
            "bufferView" : 3,
            "componentType" : 5123,
            "count" : 852,
            "type" : "SCALAR"
        },
        {
            "bufferView" : 4,
            "componentType" : 5126,
            "count" : 108,
            "max" : [
                1.2990381717681885,
                0.48000001907348633,
                1.5
            ],
            "min" : [
                -1.2990381717681885,
                -0.48000001907348633,
                -1.5
            ],
            "type" : "VEC3"
        },
        {
            "bufferView" : 5,
            "componentType" : 5126,
            "count" : 108,
            "type" : "VEC3"
        },
        {
            "bufferView" : 6,
            "componentType" : 5126,
            "count" : 108,
            "type" : "VEC2"
        },
        {
            "bufferView" : 7,
            "componentType" : 5123,
            "count" : 204,
            "type" : "SCALAR"
        }
    ],
    "bufferViews" : [
        {
            "buffer" : 0,
            "byteLength" : 6528,
            "byteOffset" : 0
        },
        {
            "buffer" : 0,
            "byteLength" : 6528,
            "byteOffset" : 6528
        },
        {
            "buffer" : 0,
            "byteLength" : 4352,
            "byteOffset" : 13056
        },
        {
            "buffer" : 0,
            "byteLength" : 1704,
            "byteOffset" : 17408
        },
        {
            "buffer" : 0,
            "byteLength" : 1296,
            "byteOffset" : 19112
        },
        {
            "buffer" : 0,
            "byteLength" : 1296,
            "byteOffset" : 20408
        },
        {
            "buffer" : 0,
            "byteLength" : 864,
            "byteOffset" : 21704
        },
        {
            "buffer" : 0,
            "byteLength" : 408,
            "byteOffset" : 22568
        }
    ],
    "buffers" : [
        {
            "byteLength" : 22976,
            "uri" : "data:application/octet-stream;base64,"
        }
    ]
}
