{
    "asset" : {
        "generator" : "Khronos glTF Blender I/O v1.2.75",
        "version" : "2.0"
    },
    "scene" : 0,
    "scenes" : [
        {
            "name" : "Scene",
            "nodes" : [
                0,
                1,
                2,
                3,
                4,
                5,
                6,
                7,
                8,
                9,
                10,
                11
            ]
        }
    ],
    "nodes" : [
        {
            "mesh" : 0,
            "name" : "Cylinder",
            "translation" : [
                0,
                0.06585842370986938,
                0
            ]
        },
        {
            "mesh" : 1,
            "name" : "band",
            "translation" : [
                0,
                0.5777491331100464,
                -1.8746604919433594
            ]
        },
        {
            "mesh" : 2,
            "name" : "band.001",
            "translation" : [
                0,
                -1.6286677122116089,
                -1.8746604919433594
            ]
        },
        {
            "mesh" : 3,
            "name" : "schraube",
            "translation" : [
                0,
                3.017669200897217,
                0.03968203067779541
            ]
        },
        {
            "mesh" : 4,
            "name" : "schraube.001",
            "translation" : [
                0,
                3.017669200897217,
                1.5047647953033447
            ]
        },
        {
            "mesh" : 5,
            "name" : "schraube.002",
            "rotation" : [
                0,
                0.7071067690849304,
                0,
                0.7071067690849304
            ],
            "translation" : [
                0.018966317176818848,
                3.017669200897217,
                0.019347965717315674
            ]
        },
        {
            "mesh" : 6,
            "name" : "schraube.003",
            "rotation" : [
                0,
                0.7071067690849304,
                0,
                0.7071067690849304
            ],
            "translation" : [
                1.4840490818023682,
                3.017669200897217,
                0.019347846508026123
            ]
        },
        {
            "mesh" : 7,
            "name" : "schraube.004",
            "translation" : [
                0,
                3.017669200897217,
                -3.5456302165985107
            ]
        },
        {
            "mesh" : 8,
            "name" : "schraube.005",
            "translation" : [
                0,
                3.017669200897217,
                -2.080547571182251
            ]
        },
        {
            "mesh" : 9,
            "name" : "schraube.006",
            "rotation" : [
                0,
                0.7071067690849304,
                0,
                0.7071067690849304
            ],
            "translation" : [
                0.018966317176818848,
                3.017669200897217,
                -3.565964460372925
            ]
        },
        {
            "mesh" : 10,
            "name" : "schraube.007",
            "rotation" : [
                0,
                0.7071067690849304,
                0,
                0.7071067690849304
            ],
            "translation" : [
                1.4840490818023682,
                3.017669200897217,
                -3.565964460372925
            ]
        },
        {
            "mesh" : 11,
            "name" : "Cylinder.001",
            "translation" : [
                0,
                0.06585842370986938,
                -3.525184392929077
            ]
        }
    ],
    "materials" : [
        {
            "doubleSided" : true,
            "emissiveFactor" : [
                0,
                0,
                0
            ],
            "name" : "generator_texture",
            "pbrMetallicRoughness" : {
                "baseColorTexture" : {
                    "index" : 0,
                    "texCoord" : 0
                },
                "metallicFactor" : 0,
                "roughnessFactor" : 0.4000000059604645
            }
        },
        {
            "doubleSided" : true,
            "emissiveFactor" : [
                0,
                0,
                0
            ],
            "name" : "generator_metall",
            "pbrMetallicRoughness" : {
                "baseColorFactor" : [
                    0.800000011920929,
                    0.800000011920929,
                    0.800000011920929,
                    1
                ],
                "metallicFactor" : 1,
                "roughnessFactor" : 0.4000000059604645
            }
        }
    ],
    "meshes" : [
        {
            "name" : "Cylinder",
            "primitives" : [
                {
                    "attributes" : {
                        "POSITION" : 0,
                        "NORMAL" : 1,
                        "TEXCOORD_0" : 2
                    },
                    "indices" : 3,
                    "material" : 0
                }
            ]
        },
        {
            "name" : "Cylinder.001",
            "primitives" : [
                {
                    "attributes" : {
                        "POSITION" : 4,
                        "NORMAL" : 5,
                        "TEXCOORD_0" : 6
                    },
                    "indices" : 7,
                    "material" : 1
                }
            ]
        },
        {
            "name" : "Cylinder.003",
            "primitives" : [
                {
                    "attributes" : {
                        "POSITION" : 8,
                        "NORMAL" : 9,
                        "TEXCOORD_0" : 10
                    },
                    "indices" : 7,
                    "material" : 1
                }
            ]
        },
        {
            "name" : "Cylinder.007",
            "primitives" : [
                {
                    "attributes" : {
                        "POSITION" : 11,
                        "NORMAL" : 12,
                        "TEXCOORD_0" : 13
                    },
                    "indices" : 14,
                    "material" : 1
                }
            ]
        },
        {
            "name" : "Cylinder.008",
            "primitives" : [
                {
                    "attributes" : {
                        "POSITION" : 15,
                        "NORMAL" : 16,
                        "TEXCOORD_0" : 17
                    },
                    "indices" : 14,
                    "material" : 1
                }
            ]
        },
        {
            "name" : "Cylinder.009",
            "primitives" : [
                {
                    "attributes" : {
                        "POSITION" : 18,
                        "NORMAL" : 19,
                        "TEXCOORD_0" : 20
                    },
                    "indices" : 14,
                    "material" : 1
                }
            ]
        },
        {
            "name" : "Cylinder.010",
            "primitives" : [
                {
                    "attributes" : {
                        "POSITION" : 21,
                        "NORMAL" : 22,
                        "TEXCOORD_0" : 23
                    },
                    "indices" : 14,
                    "material" : 1
                }
            ]
        },
        {
            "name" : "Cylinder.011",
            "primitives" : [
                {
                    "attributes" : {
                        "POSITION" : 24,
                        "NORMAL" : 25,
                        "TEXCOORD_0" : 26
                    },
                    "indices" : 14,
                    "material" : 1
                }
            ]
        },
        {
            "name" : "Cylinder.012",
            "primitives" : [
                {
                    "attributes" : {
                        "POSITION" : 27,
                        "NORMAL" : 28,
                        "TEXCOORD_0" : 29
                    },
                    "indices" : 14,
                    "material" : 1
                }
            ]
        },
        {
            "name" : "Cylinder.013",
            "primitives" : [
                {
                    "attributes" : {
                        "POSITION" : 30,
                        "NORMAL" : 31,
                        "TEXCOORD_0" : 32
                    },
                    "indices" : 14,
                    "material" : 1
                }
            ]
        },
        {
            "name" : "Cylinder.014",
            "primitives" : [
                {
                    "attributes" : {
                        "POSITION" : 33,
                        "NORMAL" : 34,
                        "TEXCOORD_0" : 35
                    },
                    "indices" : 14,
                    "material" : 1
                }
            ]
        },
        {
            "name" : "Cylinder.015",
            "primitives" : [
                {
                    "attributes" : {
                        "POSITION" : 36,
                        "NORMAL" : 37,
                        "TEXCOORD_0" : 38
                    },
                    "indices" : 3,
                    "material" : 0
                }
            ]
        }
    ],
    "textures" : [
        {
            "source" : 0
        }
    ],
    "images" : [
        {
            "bufferView" : 4,
            "mimeType" : "image/png",
            "name" : "textured_generator"
        }
    ],
    "accessors" : [
        {
            "bufferView" : 0,
            "componentType" : 5126,
            "count" : 2828,
            "max" : [
                1.4628021717071533,
                2.9264984130859375,
                1.4628026485443115
            ],
            "min" : [
                -1.4628024101257324,
                -2.5266685485839844,
                -1.4628019332885742
            ],
            "type" : "VEC3"
        },
        {
            "bufferView" : 1,
            "componentType" : 5126,
            "count" : 2828,
            "type" : "VEC3"
        },
        {
            "bufferView" : 2,
            "componentType" : 5126,
            "count" : 2828,
            "type" : "VEC2"
        },
        {
            "bufferView" : 3,
            "componentType" : 5123,
            "count" : 4692,
            "type" : "SCALAR"
        },
        {
            "bufferView" : 5,
            "componentType" : 5126,
            "count" : 128,
            "max" : [
                1.4628021717071533,
                0.13219410181045532,
                3.308197498321533
            ],
            "min" : [
                -1.4628024101257324,
                -0.13219383358955383,
                -3.091092109680176
            ],
            "type" : "VEC3"
        },
        {
            "bufferView" : 6,
            "componentType" : 5126,
            "count" : 128,
            "type" : "VEC3"
        },
        {
            "bufferView" : 7,
            "componentType" : 5126,
            "count" : 128,
            "type" : "VEC2"
        },
        {
            "bufferView" : 8,
            "componentType" : 5123,
            "count" : 192,
            "type" : "SCALAR"
        },
        {
            "bufferView" : 9,
            "componentType" : 5126,
            "count" : 128,
            "max" : [
                1.4628021717071533,
                0.13219410181045532,
                3.308197498321533
            ],
            "min" : [
                -1.4628024101257324,
                -0.13219383358955383,
                -3.091092109680176
            ],
            "type" : "VEC3"
        },
        {
            "bufferView" : 10,
            "componentType" : 5126,
            "count" : 128,
            "type" : "VEC3"
        },
        {
            "bufferView" : 11,
            "componentType" : 5126,
            "count" : 128,
            "type" : "VEC2"
        },
        {
            "bufferView" : 12,
            "componentType" : 5126,
            "count" : 48,
            "max" : [
                0.10000002384185791,
                0.03838502988219261,
                -0.6567170023918152
            ],
            "min" : [
                -0.10000002384185791,
                -0.03838502988219261,
                -0.856717050075531
            ],
            "type" : "VEC3"
        },
        {
            "bufferView" : 13,
            "componentType" : 5126,
            "count" : 48,
            "type" : "VEC3"
        },
        {
            "bufferView" : 14,
            "componentType" : 5126,
            "count" : 48,
            "type" : "VEC2"
        },
        {
            "bufferView" : 15,
            "componentType" : 5123,
            "count" : 84,
            "type" : "SCALAR"
        },
        {
            "bufferView" : 16,
            "componentType" : 5126,
            "count" : 48,
            "max" : [
                0.10000002384185791,
                0.03838502988219261,
                -0.6567170023918152
            ],
            "min" : [
                -0.10000002384185791,
                -0.03838502988219261,
                -0.856717050075531
            ],
            "type" : "VEC3"
        },
        {
            "bufferView" : 17,
            "componentType" : 5126,
            "count" : 48,
            "type" : "VEC3"
        },
        {
            "bufferView" : 18,
            "componentType" : 5126,
            "count" : 48,
            "type" : "VEC2"
        },
        {
            "bufferView" : 19,
            "componentType" : 5126,
            "count" : 48,
            "max" : [
                0.10000002384185791,
                0.03838502988219261,
                -0.6567170023918152
            ],
            "min" : [
                -0.10000002384185791,
                -0.03838502988219261,
                -0.856717050075531
            ],
            "type" : "VEC3"
        },
        {
            "bufferView" : 20,
            "componentType" : 5126,
            "count" : 48,
            "type" : "VEC3"
        },
        {
            "bufferView" : 21,
            "componentType" : 5126,
            "count" : 48,
            "type" : "VEC2"
        },
        {
            "bufferView" : 22,
            "componentType" : 5126,
            "count" : 48,
            "max" : [
                0.10000002384185791,
                0.03838502988219261,
                -0.6567170023918152
            ],
            "min" : [
                -0.10000002384185791,
                -0.03838502988219261,
                -0.856717050075531
            ],
            "type" : "VEC3"
        },
        {
            "bufferView" : 23,
            "componentType" : 5126,
            "count" : 48,
            "type" : "VEC3"
        },
        {
            "bufferView" : 24,
            "componentType" : 5126,
            "count" : 48,
            "type" : "VEC2"
        },
        {
            "bufferView" : 25,
            "componentType" : 5126,
            "count" : 48,
            "max" : [
                0.10000002384185791,
                0.03838502988219261,
                -0.6567170023918152
            ],
            "min" : [
                -0.10000002384185791,
                -0.03838502988219261,
                -0.856717050075531
            ],
            "type" : "VEC3"
        },
        {
            "bufferView" : 26,
            "componentType" : 5126,
            "count" : 48,
            "type" : "VEC3"
        },
        {
            "bufferView" : 27,
            "componentType" : 5126,
            "count" : 48,
            "type" : "VEC2"
        },
        {
            "bufferView" : 28,
            "componentType" : 5126,
            "count" : 48,
            "max" : [
                0.10000002384185791,
                0.03838502988219261,
                -0.6567170023918152
            ],
            "min" : [
                -0.10000002384185791,
                -0.03838502988219261,
                -0.856717050075531
            ],
            "type" : "VEC3"
        },
        {
            "bufferView" : 29,
            "componentType" : 5126,
            "count" : 48,
            "type" : "VEC3"
        },
        {
            "bufferView" : 30,
            "componentType" : 5126,
            "count" : 48,
            "type" : "VEC2"
        },
        {
            "bufferView" : 31,
            "componentType" : 5126,
            "count" : 48,
            "max" : [
                0.10000002384185791,
                0.03838502988219261,
                -0.6567170023918152
            ],
            "min" : [
                -0.10000002384185791,
                -0.03838502988219261,
                -0.856717050075531
            ],
            "type" : "VEC3"
        },
        {
            "bufferView" : 32,
            "componentType" : 5126,
            "count" : 48,
            "type" : "VEC3"
        },
        {
            "bufferView" : 33,
            "componentType" : 5126,
            "count" : 48,
            "type" : "VEC2"
        },
        {
            "bufferView" : 34,
            "componentType" : 5126,
            "count" : 48,
            "max" : [
                0.10000002384185791,
                0.03838502988219261,
                -0.6567170023918152
            ],
            "min" : [
                -0.10000002384185791,
                -0.03838502988219261,
                -0.856717050075531
            ],
            "type" : "VEC3"
        },
        {
            "bufferView" : 35,
            "componentType" : 5126,
            "count" : 48,
            "type" : "VEC3"
        },
        {
            "bufferView" : 36,
            "componentType" : 5126,
            "count" : 48,
            "type" : "VEC2"
        },
        {
            "bufferView" : 37,
            "componentType" : 5126,
            "count" : 2828,
            "max" : [
                1.4628021717071533,
                2.9264984130859375,
                1.4628026485443115
            ],
            "min" : [
                -1.4628024101257324,
                -2.5266685485839844,
                -1.4628019332885742
            ],
            "type" : "VEC3"
        },
        {
            "bufferView" : 38,
            "componentType" : 5126,
            "count" : 2828,
            "type" : "VEC3"
        },
        {
            "bufferView" : 39,
            "componentType" : 5126,
            "count" : 2828,
            "type" : "VEC2"
        }
    ],
    "bufferViews" : [
        {
            "buffer" : 0,
            "byteLength" : 33936,
            "byteOffset" : 0
        },
        {
            "buffer" : 0,
            "byteLength" : 33936,
            "byteOffset" : 33936
        },
        {
            "buffer" : 0,
            "byteLength" : 22624,
            "byteOffset" : 67872
        },
        {
            "buffer" : 0,
            "byteLength" : 9384,
            "byteOffset" : 90496
        },
        {
            "buffer" : 0,
            "byteLength" : 661255,
            "byteOffset" : 99880
        },
        {
            "buffer" : 0,
            "byteLength" : 1536,
            "byteOffset" : 761136
        },
        {
            "buffer" : 0,
            "byteLength" : 1536,
            "byteOffset" : 762672
        },
        {
            "buffer" : 0,
            "byteLength" : 1024,
            "byteOffset" : 764208
        },
        {
            "buffer" : 0,
            "byteLength" : 384,
            "byteOffset" : 765232
        },
        {
            "buffer" : 0,
            "byteLength" : 1536,
            "byteOffset" : 765616
        },
        {
            "buffer" : 0,
            "byteLength" : 1536,
            "byteOffset" : 767152
        },
        {
            "buffer" : 0,
            "byteLength" : 1024,
            "byteOffset" : 768688
        },
        {
            "buffer" : 0,
            "byteLength" : 576,
            "byteOffset" : 769712
        },
        {
            "buffer" : 0,
            "byteLength" : 576,
            "byteOffset" : 770288
        },
        {
            "buffer" : 0,
            "byteLength" : 384,
            "byteOffset" : 770864
        },
        {
            "buffer" : 0,
            "byteLength" : 168,
            "byteOffset" : 771248
        },
        {
            "buffer" : 0,
            "byteLength" : 576,
            "byteOffset" : 771416
        },
        {
            "buffer" : 0,
            "byteLength" : 576,
            "byteOffset" : 771992
        },
        {
            "buffer" : 0,
            "byteLength" : 384,
            "byteOffset" : 772568
        },
        {
            "buffer" : 0,
            "byteLength" : 576,
            "byteOffset" : 772952
        },
        {
            "buffer" : 0,
            "byteLength" : 576,
            "byteOffset" : 773528
        },
        {
            "buffer" : 0,
            "byteLength" : 384,
            "byteOffset" : 774104
        },
        {
            "buffer" : 0,
            "byteLength" : 576,
            "byteOffset" : 774488
        },
        {
            "buffer" : 0,
            "byteLength" : 576,
            "byteOffset" : 775064
        },
        {
            "buffer" : 0,
            "byteLength" : 384,
            "byteOffset" : 775640
        },
        {
            "buffer" : 0,
            "byteLength" : 576,
            "byteOffset" : 776024
        },
        {
            "buffer" : 0,
            "byteLength" : 576,
            "byteOffset" : 776600
        },
        {
            "buffer" : 0,
            "byteLength" : 384,
            "byteOffset" : 777176
        },
        {
            "buffer" : 0,
            "byteLength" : 576,
            "byteOffset" : 777560
        },
        {
            "buffer" : 0,
            "byteLength" : 576,
            "byteOffset" : 778136
        },
        {
            "buffer" : 0,
            "byteLength" : 384,
            "byteOffset" : 778712
        },
        {
            "buffer" : 0,
            "byteLength" : 576,
            "byteOffset" : 779096
        },
        {
            "buffer" : 0,
            "byteLength" : 576,
            "byteOffset" : 779672
        },
        {
            "buffer" : 0,
            "byteLength" : 384,
            "byteOffset" : 780248
        },
        {
            "buffer" : 0,
            "byteLength" : 576,
            "byteOffset" : 780632
        },
        {
            "buffer" : 0,
            "byteLength" : 576,
            "byteOffset" : 781208
        },
        {
            "buffer" : 0,
            "byteLength" : 384,
            "byteOffset" : 781784
        },
        {
            "buffer" : 0,
            "byteLength" : 33936,
            "byteOffset" : 782168
        },
        {
            "buffer" : 0,
            "byteLength" : 33936,
            "byteOffset" : 816104
        },
        {
            "buffer" : 0,
            "byteLength" : 22624,
            "byteOffset" : 850040
        }
    ],
    "buffers" : [
        {
            "byteLength" : 872664,
            "uri" : "data:application/octet-stream;base64,"
        }
    ]
}
