{
    "asset" : {
        "generator" : "Khronos glTF Blender I/O v1.2.75",
        "version" : "2.0"
    },
    "scene" : 0,
    "scenes" : [
        {
            "name" : "Scene",
            "nodes" : [
                0,
                1,
                2,
                3,
                4
            ]
        }
    ],
    "nodes" : [
        {
            "mesh" : 0,
            "name" : "automat"
        },
        {
            "mesh" : 1,
            "name" : "tasse",
            "translation" : [
                0,
                -0.21226680278778076,
                -0.7099999785423279
            ]
        },
        {
            "mesh" : 2,
            "name" : "griff",
            "rotation" : [
                0,
                0,
                -0.7071067690849304,
                0.7071067690849304
            ],
            "translation" : [
                0,
                -0.7053727507591248,
                -1.5176308155059814
            ]
        },
        {
            "mesh" : 3,
            "name" : "11111",
            "rotation" : [
                0,
                0,
                -0.7071067690849304,
                0.7071067690849304
            ],
            "translation" : [
                0,
                0.5447280406951904,
                -6.197692394256592
            ]
        },
        {
            "mesh" : 4,
            "name" : "tasse.cut",
            "scale" : [
                0.8149588704109192,
                0.8149588704109192,
                0.8149588704109192
            ],
            "translation" : [
                0,
                -0.21226680278778076,
                -0.7099999785423279
            ]
        }
    ],
    "meshes" : [
        {
            "name" : "Cube.001",
            "primitives" : [
                {
                    "attributes" : {
                        "POSITION" : 0,
                        "NORMAL" : 1,
                        "TEXCOORD_0" : 2
                    },
                    "indices" : 3
                }
            ]
        },
        {
            "name" : "Cylinder",
            "primitives" : [
                {
                    "attributes" : {
                        "POSITION" : 4,
                        "NORMAL" : 5,
                        "TEXCOORD_0" : 6
                    },
                    "indices" : 7
                }
            ]
        },
        {
            "name" : "Cylinder.001",
            "primitives" : [
                {
                    "attributes" : {
                        "POSITION" : 8,
                        "NORMAL" : 9,
                        "TEXCOORD_0" : 10
                    },
                    "indices" : 11
                }
            ]
        },
        {
            "name" : "Cylinder.003",
            "primitives" : [
                {
                    "attributes" : {
                        "POSITION" : 12,
                        "NORMAL" : 13,
                        "TEXCOORD_0" : 14
                    },
                    "indices" : 15
                }
            ]
        },
        {
            "name" : "Cylinder.004",
            "primitives" : [
                {
                    "attributes" : {
                        "POSITION" : 16,
                        "NORMAL" : 17,
                        "TEXCOORD_0" : 18
                    },
                    "indices" : 7
                }
            ]
        }
    ],
    "accessors" : [
        {
            "bufferView" : 0,
            "componentType" : 5126,
            "count" : 256,
            "max" : [
                1,
                1.5,
                1
            ],
            "min" : [
                -1,
                -1.5,
                -1
            ],
            "type" : "VEC3"
        },
        {
            "bufferView" : 1,
            "componentType" : 5126,
            "count" : 256,
            "type" : "VEC3"
        },
        {
            "bufferView" : 2,
            "componentType" : 5126,
            "count" : 256,
            "type" : "VEC2"
        },
        {
            "bufferView" : 3,
            "componentType" : 5123,
            "count" : 492,
            "type" : "SCALAR"
        },
        {
            "bufferView" : 4,
            "componentType" : 5126,
            "count" : 96,
            "max" : [
                0.5800000429153442,
                0.8912538290023804,
                0.5800000429153442
            ],
            "min" : [
                -0.5800000429153442,
                -0.8912538290023804,
                -0.5800000429153442
            ],
            "type" : "VEC3"
        },
        {
            "bufferView" : 5,
            "componentType" : 5126,
            "count" : 96,
            "type" : "VEC3"
        },
        {
            "bufferView" : 6,
            "componentType" : 5126,
            "count" : 96,
            "type" : "VEC2"
        },
        {
            "bufferView" : 7,
            "componentType" : 5123,
            "count" : 180,
            "type" : "SCALAR"
        },
        {
            "bufferView" : 8,
            "componentType" : 5126,
            "count" : 324,
            "max" : [
                0.2595113515853882,
                0.12218081206083298,
                0.25102752447128296
            ],
            "min" : [
                -1.1543779373168945,
                -0.12218082696199417,
                -0.25102752447128296
            ],
            "type" : "VEC3"
        },
        {
            "bufferView" : 9,
            "componentType" : 5126,
            "count" : 324,
            "type" : "VEC3"
        },
        {
            "bufferView" : 10,
            "componentType" : 5126,
            "count" : 324,
            "type" : "VEC2"
        },
        {
            "bufferView" : 11,
            "componentType" : 5123,
            "count" : 636,
            "type" : "SCALAR"
        },
        {
            "bufferView" : 12,
            "componentType" : 5126,
            "count" : 121,
            "max" : [
                0.5800000429153442,
                1,
                0.5800000429153442
            ],
            "min" : [
                -2.5799999237060547,
                -1.0000001192092896,
                -0.5800000429153442
            ],
            "type" : "VEC3"
        },
        {
            "bufferView" : 13,
            "componentType" : 5126,
            "count" : 121,
            "type" : "VEC3"
        },
        {
            "bufferView" : 14,
            "componentType" : 5126,
            "count" : 121,
            "type" : "VEC2"
        },
        {
            "bufferView" : 15,
            "componentType" : 5123,
            "count" : 252,
            "type" : "SCALAR"
        },
        {
            "bufferView" : 16,
            "componentType" : 5126,
            "count" : 96,
            "max" : [
                0.5800000429153442,
                1.376726508140564,
                0.5800000429153442
            ],
            "min" : [
                -0.5800000429153442,
                -0.8912538290023804,
                -0.5800000429153442
            ],
            "type" : "VEC3"
        },
        {
            "bufferView" : 17,
            "componentType" : 5126,
            "count" : 96,
            "type" : "VEC3"
        },
        {
            "bufferView" : 18,
            "componentType" : 5126,
            "count" : 96,
            "type" : "VEC2"
        }
    ],
    "bufferViews" : [
        {
            "buffer" : 0,
            "byteLength" : 3072,
            "byteOffset" : 0
        },
        {
            "buffer" : 0,
            "byteLength" : 3072,
            "byteOffset" : 3072
        },
        {
            "buffer" : 0,
            "byteLength" : 2048,
            "byteOffset" : 6144
        },
        {
            "buffer" : 0,
            "byteLength" : 984,
            "byteOffset" : 8192
        },
        {
            "buffer" : 0,
            "byteLength" : 1152,
            "byteOffset" : 9176
        },
        {
            "buffer" : 0,
            "byteLength" : 1152,
            "byteOffset" : 10328
        },
        {
            "buffer" : 0,
            "byteLength" : 768,
            "byteOffset" : 11480
        },
        {
            "buffer" : 0,
            "byteLength" : 360,
            "byteOffset" : 12248
        },
        {
            "buffer" : 0,
            "byteLength" : 3888,
            "byteOffset" : 12608
        },
        {
            "buffer" : 0,
            "byteLength" : 3888,
            "byteOffset" : 16496
        },
        {
            "buffer" : 0,
            "byteLength" : 2592,
            "byteOffset" : 20384
        },
        {
            "buffer" : 0,
            "byteLength" : 1272,
            "byteOffset" : 22976
        },
        {
            "buffer" : 0,
            "byteLength" : 1452,
            "byteOffset" : 24248
        },
        {
            "buffer" : 0,
            "byteLength" : 1452,
            "byteOffset" : 25700
        },
        {
            "buffer" : 0,
            "byteLength" : 968,
            "byteOffset" : 27152
        },
        {
            "buffer" : 0,
            "byteLength" : 504,
            "byteOffset" : 28120
        },
        {
            "buffer" : 0,
            "byteLength" : 1152,
            "byteOffset" : 28624
        },
        {
            "buffer" : 0,
            "byteLength" : 1152,
            "byteOffset" : 29776
        },
        {
            "buffer" : 0,
            "byteLength" : 768,
            "byteOffset" : 30928
        }
    ],
    "buffers" : [
        {
            "byteLength" : 31696,
            "uri" : "data:application/octet-stream;base64,"
        }
    ]
}
