# Blender v2.83.2 OBJ File: 'schraube_weiter.blend'
# www.blender.org
mtllib schraube_weiter.mtl
o Cylinder
v 0.296848 -1.000000 -0.049958
v 0.986132 1.000000 -0.165962
v 0.293370 -1.000000 0.067443
v 0.974578 1.000000 0.224048
v 0.245229 -1.000000 0.174577
v 0.814653 1.000000 0.579948
v 0.159754 -1.000000 0.255133
v 0.530705 1.000000 0.847557
v 0.049958 -1.000000 0.296848
v 0.165962 1.000000 0.986132
v -0.067443 -1.000000 0.293369
v -0.224048 1.000000 0.974578
v -0.174577 -1.000000 0.245229
v -0.579948 1.000000 0.814653
v -0.255133 -1.000000 0.159754
v -0.847557 1.000000 0.530705
v -0.296847 -1.000000 0.049958
v -0.986132 1.000000 0.165962
v -0.293369 -1.000000 -0.067443
v -0.974578 1.000000 -0.224048
v -0.245229 -1.000000 -0.174577
v -0.814653 1.000000 -0.579948
v -0.159754 -1.000000 -0.255133
v -0.530705 1.000000 -0.847557
v -0.049958 -1.000000 -0.296848
v -0.165961 1.000000 -0.986132
v 0.067444 -1.000000 -0.293370
v 0.224048 1.000000 -0.974578
v 0.174577 -1.000000 -0.245229
v 0.579949 1.000000 -0.814653
v 0.255134 -1.000000 -0.159754
v 0.847557 1.000000 -0.530704
v 0.000000 -0.666667 -1.000000
v 0.986132 -0.333333 -0.165962
v 0.000000 0.000000 -1.000000
v 0.986132 0.333333 -0.165962
v 0.000000 0.666667 -1.000000
v 0.382683 0.666667 -0.923880
v 0.974578 0.333333 0.224048
v 0.382683 -0.000000 -0.923880
v 0.974578 -0.333333 0.224048
v 0.382683 -0.666667 -0.923880
v 0.707107 0.666667 -0.707107
v 0.814653 0.333333 0.579948
v 0.707107 -0.000000 -0.707107
v 0.814653 -0.333333 0.579948
v 0.707107 -0.666667 -0.707107
v 0.923880 0.666667 -0.382683
v 0.530705 0.333333 0.847557
v 0.923880 -0.000000 -0.382683
v 0.530705 -0.333333 0.847557
v 0.923880 -0.666667 -0.382683
v 1.000000 0.666667 0.000000
v 0.165962 0.333333 0.986132
v 1.000000 -0.000000 0.000000
v 0.165962 -0.333333 0.986132
v 1.000000 -0.666667 0.000000
v 0.923880 0.666667 0.382684
v -0.224048 0.333333 0.974578
v 0.923880 -0.000000 0.382684
v -0.224048 -0.333333 0.974578
v 0.923880 -0.666667 0.382684
v 0.707107 0.666667 0.707107
v -0.579948 0.333333 0.814653
v 0.707107 -0.000000 0.707107
v -0.579948 -0.333333 0.814653
v 0.707107 -0.666667 0.707107
v 0.382683 0.666667 0.923880
v -0.847557 0.333333 0.530705
v 0.382683 -0.000000 0.923880
v -0.847557 -0.333333 0.530705
v 0.382683 -0.666667 0.923880
v 0.000000 0.666667 1.000000
v -0.986132 0.333333 0.165962
v 0.000000 -0.000000 1.000000
v -0.986132 -0.333333 0.165962
v 0.000000 -0.666667 1.000000
v -0.382683 0.666667 0.923880
v -0.974578 0.333333 -0.224048
v -0.382683 -0.000000 0.923880
v -0.974578 -0.333333 -0.224048
v -0.382683 -0.666667 0.923880
v -0.707107 0.666667 0.707107
v -0.814653 0.333333 -0.579948
v -0.707107 -0.000000 0.707107
v -0.814653 -0.333333 -0.579948
v -0.707107 -0.666667 0.707107
v -0.923880 0.666667 0.382684
v -0.530705 0.333333 -0.847557
v -0.923880 -0.000000 0.382684
v -0.530705 -0.333333 -0.847557
v -0.923880 -0.666667 0.382684
v -1.000000 0.666667 -0.000000
v -0.165961 0.333333 -0.986132
v -1.000000 -0.000000 -0.000000
v -0.165961 -0.333333 -0.986132
v -1.000000 -0.666667 -0.000000
v -0.923879 0.666667 -0.382684
v 0.224048 0.333333 -0.974578
v -0.923879 -0.000000 -0.382684
v 0.224048 -0.333333 -0.974578
v -0.923879 -0.666667 -0.382684
v -0.707107 0.666667 -0.707107
v 0.579949 0.333333 -0.814653
v -0.707107 -0.000000 -0.707107
v 0.579949 -0.333333 -0.814653
v -0.707107 -0.666667 -0.707107
v -0.382683 0.666667 -0.923880
v 0.847557 0.333333 -0.530704
v -0.382683 -0.000000 -0.923880
v 0.847557 -0.333333 -0.530704
v -0.382683 -0.666667 -0.923880
v 0.242066 -1.210175 -0.040739
v 0.296848 -1.155690 -0.049958
v 0.293370 -1.155690 0.067443
v 0.239230 -1.210175 0.054997
v 0.245229 -1.155690 0.174577
v 0.199973 -1.210175 0.142360
v 0.159754 -1.155690 0.255133
v 0.130272 -1.210175 0.208050
v 0.049958 -1.155690 0.296848
v 0.040739 -1.210175 0.242066
v -0.067443 -1.155690 0.293369
v -0.054997 -1.210175 0.239230
v -0.174577 -1.155690 0.245229
v -0.142360 -1.210175 0.199973
v -0.255133 -1.155690 0.159754
v -0.208050 -1.210175 0.130272
v -0.296847 -1.155690 0.049958
v -0.242066 -1.210175 0.040739
v -0.293369 -1.155690 -0.067443
v -0.239230 -1.210175 -0.054997
v -0.245229 -1.155690 -0.174577
v -0.199973 -1.210175 -0.142360
v -0.159754 -1.155690 -0.255133
v -0.130272 -1.210175 -0.208050
v -0.049958 -1.155690 -0.296848
v -0.040738 -1.210175 -0.242066
v 0.067444 -1.155690 -0.293370
v 0.054997 -1.210175 -0.239230
v 0.174577 -1.155690 -0.245229
v 0.142360 -1.210175 -0.199973
v 0.255134 -1.155690 -0.159754
v 0.208050 -1.210175 -0.130272
vt 1.000000 0.916667
vt 1.000000 1.000000
vt 0.937500 1.000000
vt 0.937500 0.916667
vt 0.875000 1.000000
vt 0.875000 0.916667
vt 0.812500 1.000000
vt 0.812500 0.916667
vt 0.750000 1.000000
vt 0.750000 0.916667
vt 0.687500 1.000000
vt 0.687500 0.916667
vt 0.625000 1.000000
vt 0.625000 0.916667
vt 0.562500 1.000000
vt 0.562500 0.916667
vt 0.500000 1.000000
vt 0.500000 0.916667
vt 0.437500 1.000000
vt 0.437500 0.916667
vt 0.375000 1.000000
vt 0.375000 0.916667
vt 0.312500 1.000000
vt 0.312500 0.916667
vt 0.250000 1.000000
vt 0.250000 0.916667
vt 0.187500 1.000000
vt 0.187500 0.916667
vt 0.125000 1.000000
vt 0.125000 0.916667
vt 0.341844 0.471731
vt 0.250000 0.490000
vt 0.158156 0.471731
vt 0.080294 0.419706
vt 0.028269 0.341844
vt 0.010000 0.250000
vt 0.028269 0.158156
vt 0.080294 0.080294
vt 0.158156 0.028269
vt 0.250000 0.010000
vt 0.341844 0.028269
vt 0.419706 0.080294
vt 0.471731 0.158156
vt 0.490000 0.250000
vt 0.471731 0.341844
vt 0.419706 0.419706
vt 0.062500 1.000000
vt 0.062500 0.916667
vt 0.000000 1.000000
vt 0.000000 0.916667
vt 0.437500 0.500000
vt 0.375000 0.500000
vt 0.375000 0.500000
vt 0.437500 0.500000
vt 0.062500 0.500000
vt 0.062500 0.583333
vt 0.000000 0.583333
vt 0.000000 0.500000
vt 0.062500 0.666667
vt 0.000000 0.666667
vt 0.062500 0.750000
vt 0.000000 0.750000
vt 0.062500 0.833333
vt 0.000000 0.833333
vt 0.125000 0.500000
vt 0.125000 0.583333
vt 0.125000 0.666667
vt 0.125000 0.750000
vt 0.125000 0.833333
vt 0.187500 0.500000
vt 0.187500 0.583333
vt 0.187500 0.666667
vt 0.187500 0.750000
vt 0.187500 0.833333
vt 0.250000 0.500000
vt 0.250000 0.583333
vt 0.250000 0.666667
vt 0.250000 0.750000
vt 0.250000 0.833333
vt 0.312500 0.500000
vt 0.312500 0.583333
vt 0.312500 0.666667
vt 0.312500 0.750000
vt 0.312500 0.833333
vt 0.375000 0.583333
vt 0.375000 0.666667
vt 0.375000 0.750000
vt 0.375000 0.833333
vt 0.437500 0.583333
vt 0.437500 0.666667
vt 0.437500 0.750000
vt 0.437500 0.833333
vt 0.500000 0.500000
vt 0.500000 0.583333
vt 0.500000 0.666667
vt 0.500000 0.750000
vt 0.500000 0.833333
vt 0.562500 0.500000
vt 0.562500 0.583333
vt 0.562500 0.666667
vt 0.562500 0.750000
vt 0.562500 0.833333
vt 0.625000 0.500000
vt 0.625000 0.583333
vt 0.625000 0.666667
vt 0.625000 0.750000
vt 0.625000 0.833333
vt 0.687500 0.500000
vt 0.687500 0.583333
vt 0.687500 0.666667
vt 0.687500 0.750000
vt 0.687500 0.833333
vt 0.750000 0.500000
vt 0.750000 0.583333
vt 0.750000 0.666667
vt 0.750000 0.750000
vt 0.750000 0.833333
vt 0.812500 0.500000
vt 0.812500 0.583333
vt 0.812500 0.666667
vt 0.812500 0.750000
vt 0.812500 0.833333
vt 0.875000 0.500000
vt 0.875000 0.583333
vt 0.875000 0.666667
vt 0.875000 0.750000
vt 0.875000 0.833333
vt 0.937500 0.500000
vt 0.937500 0.583333
vt 0.937500 0.666667
vt 0.937500 0.750000
vt 0.937500 0.833333
vt 1.000000 0.500000
vt 1.000000 0.583333
vt 1.000000 0.666667
vt 1.000000 0.750000
vt 1.000000 0.833333
vt 0.000000 0.500000
vt 0.062500 0.500000
vt 0.125000 0.500000
vt 0.812500 0.500000
vt 0.875000 0.500000
vt 0.500000 0.500000
vt 0.562500 0.500000
vt 0.187500 0.500000
vt 0.250000 0.500000
vt 0.625000 0.500000
vt 0.687500 0.500000
vt 0.312500 0.500000
vt 0.750000 0.500000
vt 0.750000 0.445709
vt 0.824895 0.430812
vt 0.888387 0.388387
vt 0.930812 0.324895
vt 0.945709 0.250000
vt 0.930812 0.175105
vt 0.888387 0.111613
vt 0.824895 0.069188
vt 0.750000 0.054291
vt 0.675105 0.069188
vt 0.611613 0.111613
vt 0.569188 0.175105
vt 0.554291 0.250000
vt 0.569188 0.324895
vt 0.611613 0.388387
vt 0.675105 0.430812
vt 0.937500 0.500000
vt 1.000000 0.500000
vt 0.943267 0.500000
vt 0.994233 0.500000
vt 0.880767 0.500000
vt 0.931733 0.500000
vt 0.818267 0.500000
vt 0.869233 0.500000
vt 0.755767 0.500000
vt 0.806733 0.500000
vt 0.693267 0.500000
vt 0.744233 0.500000
vt 0.630767 0.500000
vt 0.681733 0.500000
vt 0.568267 0.500000
vt 0.619233 0.500000
vt 0.505767 0.500000
vt 0.556733 0.500000
vt 0.443267 0.500000
vt 0.494233 0.500000
vt 0.380767 0.500000
vt 0.431733 0.500000
vt 0.318267 0.500000
vt 0.369233 0.500000
vt 0.255767 0.500000
vt 0.306733 0.500000
vt 0.193267 0.500000
vt 0.244233 0.500000
vt 0.130767 0.500000
vt 0.181733 0.500000
vt 0.068267 0.500000
vt 0.119233 0.500000
vt 0.005767 0.500000
vt 0.056733 0.500000
vn 0.7823 -0.0000 -0.6229
vn 0.9611 -0.0000 -0.2761
vn 0.9936 -0.0000 0.1127
vn 0.8748 0.0000 0.4844
vn 0.6229 0.0000 0.7823
vn 0.2761 -0.0000 0.9611
vn -0.1127 0.0000 0.9936
vn -0.4844 0.0000 0.8748
vn -0.7823 -0.0000 0.6229
vn -0.9611 0.0000 0.2761
vn -0.9936 -0.0000 -0.1127
vn -0.8748 0.0000 -0.4844
vn -0.6229 -0.0000 -0.7823
vn -0.2761 0.0000 -0.9611
vn 0.0000 1.0000 -0.0000
vn 0.1127 -0.0000 -0.9936
vn 0.4844 -0.0000 -0.8748
vn -0.9121 0.0000 -0.4099
vn 0.0299 -0.9260 -0.3764
vn -0.1165 -0.9260 -0.3592
vn -0.2450 -0.9260 -0.2873
vn -0.3363 -0.9260 -0.1716
vn -0.3764 -0.9260 -0.0299
vn -0.3592 -0.9260 0.1165
vn -0.2873 -0.9260 0.2450
vn -0.1716 -0.9260 0.3363
vn -0.0299 -0.9260 0.3764
vn 0.1165 -0.9260 0.3592
vn 0.2450 -0.9260 0.2873
vn 0.3363 -0.9260 0.1716
vn 0.3764 -0.9260 0.0299
vn 0.3592 -0.9260 -0.1165
vn 0.2873 -0.9260 -0.2450
vn 0.1716 -0.9260 -0.3363
vn 0.9348 0.0000 -0.3552
vn 0.7277 0.0000 -0.6859
vn 0.6859 0.0000 0.7277
vn -0.9348 0.0000 0.3552
vn 0.0296 0.0000 -0.9996
vn -0.4099 0.0000 0.9121
vn -0.6859 0.0000 -0.7277
vn 0.3552 0.0000 0.9348
vn -0.9996 0.0000 -0.0296
vn 0.4099 0.0000 -0.9121
vn 0.0000 -1.0000 -0.0000
vn -0.7277 0.0000 0.6859
vn -0.3552 0.0000 -0.9348
vn 0.9121 0.0000 0.4099
vn -0.0296 0.0000 0.9996
vn 0.7068 -0.7071 0.0209
vn 0.6450 -0.7071 0.2898
vn 0.4850 -0.7071 0.5146
vn 0.2511 -0.7071 0.6610
vn -0.0209 -0.7071 0.7068
vn -0.2898 -0.7071 0.6450
vn -0.5146 -0.7071 0.4850
vn -0.6610 -0.7071 0.2511
vn -0.7068 -0.7071 -0.0209
vn -0.6450 -0.7071 -0.2898
vn -0.4850 -0.7071 -0.5146
vn -0.2511 -0.7071 -0.6610
vn 0.0209 -0.7071 -0.7068
vn 0.2898 -0.7071 -0.6450
vn 0.5146 -0.7071 -0.4850
vn 0.6610 -0.7071 -0.2511
vn 0.9996 0.0000 0.0296
usemtl None
s off
f 37/1/1 2/2/1 4/3/1 38/4/1
f 38/4/2 4/3/2 6/5/2 43/6/2
f 43/6/3 6/5/3 8/7/3 48/8/3
f 48/8/4 8/7/4 10/9/4 53/10/4
f 53/10/5 10/9/5 12/11/5 58/12/5
f 58/12/6 12/11/6 14/13/6 63/14/6
f 63/14/7 14/13/7 16/15/7 68/16/7
f 68/16/8 16/15/8 18/17/8 73/18/8
f 73/18/9 18/17/9 20/19/9 78/20/9
f 78/20/10 20/19/10 22/21/10 83/22/10
f 83/22/11 22/21/11 24/23/11 88/24/11
f 88/24/12 24/23/12 26/25/12 93/26/12
f 93/26/13 26/25/13 28/27/13 98/28/13
f 98/28/14 28/27/14 30/29/14 103/30/14
f 4/31/15 2/32/15 32/33/15 30/34/15 28/35/15 26/36/15 24/37/15 22/38/15 20/39/15 18/40/15 16/41/15 14/42/15 12/43/15 10/44/15 8/45/15 6/46/15
f 103/30/16 30/29/16 32/47/16 108/48/16
f 108/48/17 32/47/17 2/49/17 37/50/17
f 19/51/18 21/52/18 133/53/18 131/54/18
f 31/55/19 112/56/19 33/57/19 1/58/19
f 112/56/17 111/59/17 34/60/17 33/57/17
f 111/59/17 110/61/17 35/62/17 34/60/17
f 110/61/17 109/63/17 36/64/17 35/62/17
f 109/63/17 108/48/17 37/50/17 36/64/17
f 29/65/20 107/66/20 112/56/20 31/55/20
f 107/66/16 106/67/16 111/59/16 112/56/16
f 106/67/16 105/68/16 110/61/16 111/59/16
f 105/68/16 104/69/16 109/63/16 110/61/16
f 104/69/16 103/30/16 108/48/16 109/63/16
f 27/70/21 102/71/21 107/66/21 29/65/21
f 102/71/14 101/72/14 106/67/14 107/66/14
f 101/72/14 100/73/14 105/68/14 106/67/14
f 100/73/14 99/74/14 104/69/14 105/68/14
f 99/74/14 98/28/14 103/30/14 104/69/14
f 25/75/22 97/76/22 102/71/22 27/70/22
f 97/76/13 96/77/13 101/72/13 102/71/13
f 96/77/13 95/78/13 100/73/13 101/72/13
f 95/78/13 94/79/13 99/74/13 100/73/13
f 94/79/13 93/26/13 98/28/13 99/74/13
f 23/80/23 92/81/23 97/76/23 25/75/23
f 92/81/12 91/82/12 96/77/12 97/76/12
f 91/82/12 90/83/12 95/78/12 96/77/12
f 90/83/12 89/84/12 94/79/12 95/78/12
f 89/84/12 88/24/12 93/26/12 94/79/12
f 21/52/24 87/85/24 92/81/24 23/80/24
f 87/85/11 86/86/11 91/82/11 92/81/11
f 86/86/11 85/87/11 90/83/11 91/82/11
f 85/87/11 84/88/11 89/84/11 90/83/11
f 84/88/11 83/22/11 88/24/11 89/84/11
f 19/51/25 82/89/25 87/85/25 21/52/25
f 82/89/10 81/90/10 86/86/10 87/85/10
f 81/90/10 80/91/10 85/87/10 86/86/10
f 80/91/10 79/92/10 84/88/10 85/87/10
f 79/92/10 78/20/10 83/22/10 84/88/10
f 17/93/26 77/94/26 82/89/26 19/51/26
f 77/94/9 76/95/9 81/90/9 82/89/9
f 76/95/9 75/96/9 80/91/9 81/90/9
f 75/96/9 74/97/9 79/92/9 80/91/9
f 74/97/9 73/18/9 78/20/9 79/92/9
f 15/98/27 72/99/27 77/94/27 17/93/27
f 72/99/8 71/100/8 76/95/8 77/94/8
f 71/100/8 70/101/8 75/96/8 76/95/8
f 70/101/8 69/102/8 74/97/8 75/96/8
f 69/102/8 68/16/8 73/18/8 74/97/8
f 13/103/28 67/104/28 72/99/28 15/98/28
f 67/104/7 66/105/7 71/100/7 72/99/7
f 66/105/7 65/106/7 70/101/7 71/100/7
f 65/106/7 64/107/7 69/102/7 70/101/7
f 64/107/7 63/14/7 68/16/7 69/102/7
f 11/108/29 62/109/29 67/104/29 13/103/29
f 62/109/6 61/110/6 66/105/6 67/104/6
f 61/110/6 60/111/6 65/106/6 66/105/6
f 60/111/6 59/112/6 64/107/6 65/106/6
f 59/112/6 58/12/6 63/14/6 64/107/6
f 9/113/30 57/114/30 62/109/30 11/108/30
f 57/114/5 56/115/5 61/110/5 62/109/5
f 56/115/5 55/116/5 60/111/5 61/110/5
f 55/116/5 54/117/5 59/112/5 60/111/5
f 54/117/5 53/10/5 58/12/5 59/112/5
f 7/118/31 52/119/31 57/114/31 9/113/31
f 52/119/4 51/120/4 56/115/4 57/114/4
f 51/120/4 50/121/4 55/116/4 56/115/4
f 50/121/4 49/122/4 54/117/4 55/116/4
f 49/122/4 48/8/4 53/10/4 54/117/4
f 5/123/32 47/124/32 52/119/32 7/118/32
f 47/124/3 46/125/3 51/120/3 52/119/3
f 46/125/3 45/126/3 50/121/3 51/120/3
f 45/126/3 44/127/3 49/122/3 50/121/3
f 44/127/3 43/6/3 48/8/3 49/122/3
f 3/128/33 42/129/33 47/124/33 5/123/33
f 42/129/2 41/130/2 46/125/2 47/124/2
f 41/130/2 40/131/2 45/126/2 46/125/2
f 40/131/2 39/132/2 44/127/2 45/126/2
f 39/132/2 38/4/2 43/6/2 44/127/2
f 1/133/34 33/134/34 42/129/34 3/128/34
f 33/134/1 34/135/1 41/130/1 42/129/1
f 34/135/1 35/136/1 40/131/1 41/130/1
f 35/136/1 36/137/1 39/132/1 40/131/1
f 36/137/1 37/1/1 38/4/1 39/132/1
f 31/55/35 1/58/35 114/138/35 143/139/35
f 29/65/36 31/55/36 143/139/36 141/140/36
f 5/123/37 7/118/37 119/141/37 117/142/37
f 15/98/38 17/93/38 129/143/38 127/144/38
f 25/75/39 27/70/39 139/145/39 137/146/39
f 11/108/40 13/103/40 125/147/40 123/148/40
f 21/52/41 23/80/41 135/149/41 133/53/41
f 7/118/42 9/113/42 121/150/42 119/141/42
f 17/93/43 19/51/43 131/54/43 129/143/43
f 27/70/44 29/65/44 141/140/44 139/145/44
f 113/151/45 116/152/45 118/153/45 120/154/45 122/155/45 124/156/45 126/157/45 128/158/45 130/159/45 132/160/45 134/161/45 136/162/45 138/163/45 140/164/45 142/165/45 144/166/45
f 13/103/46 15/98/46 127/144/46 125/147/46
f 23/80/47 25/75/47 137/146/47 135/149/47
f 3/128/48 5/123/48 117/142/48 115/167/48
f 9/113/49 11/108/49 123/148/49 121/150/49
f 114/168/50 115/167/50 116/169/50 113/170/50
f 115/167/51 117/142/51 118/171/51 116/172/51
f 117/142/52 119/141/52 120/173/52 118/174/52
f 119/141/53 121/150/53 122/175/53 120/176/53
f 121/150/54 123/148/54 124/177/54 122/178/54
f 123/148/55 125/147/55 126/179/55 124/180/55
f 125/147/56 127/144/56 128/181/56 126/182/56
f 127/144/57 129/143/57 130/183/57 128/184/57
f 129/143/58 131/54/58 132/185/58 130/186/58
f 131/54/59 133/53/59 134/187/59 132/188/59
f 133/53/60 135/149/60 136/189/60 134/190/60
f 135/149/61 137/146/61 138/191/61 136/192/61
f 137/146/62 139/145/62 140/193/62 138/194/62
f 139/145/63 141/140/63 142/195/63 140/196/63
f 141/140/64 143/139/64 144/197/64 142/198/64
f 143/139/65 114/138/65 113/199/65 144/200/65
f 1/133/66 3/128/66 115/167/66 114/168/66
o Cylinder.001
v -0.158747 0.990000 -1.408347
v 0.000000 1.173305 -1.500000
v 0.158747 0.990000 -1.408347
v 0.158747 1.950000 -1.408347
v 0.000000 1.766695 -1.500000
v -0.158747 1.950000 -1.408347
v 1.140291 0.990000 -0.841653
v 1.299038 1.173305 -0.750000
v 1.299038 0.990000 -0.566695
v 1.299038 1.950000 -0.566695
v 1.299038 1.766695 -0.750000
v 1.140291 1.950000 -0.841653
v 1.299038 0.990000 0.566695
v 1.299038 1.173305 0.750000
v 1.140291 0.990000 0.841653
v 1.140291 1.950000 0.841653
v 1.299038 1.766695 0.750000
v 1.299038 1.950000 0.566695
v 0.158747 0.990000 1.408347
v -0.000000 1.173305 1.500000
v -0.158747 0.990000 1.408347
v -0.158747 1.950000 1.408347
v -0.000000 1.766695 1.500000
v 0.158747 1.950000 1.408347
v -1.140291 0.990000 0.841653
v -1.299038 1.173305 0.750000
v -1.299038 0.990000 0.566695
v -1.299038 1.950000 0.566695
v -1.299038 1.766695 0.750000
v -1.140291 1.950000 0.841653
v -1.299038 0.990000 -0.566695
v -1.299038 1.173305 -0.750000
v -1.140291 0.990000 -0.841652
v -1.140291 1.950000 -0.841652
v -1.299038 1.766695 -0.750000
v -1.299038 1.950000 -0.566695
vt 0.146299 0.500000
vt 0.166667 0.595471
vt 0.166667 0.904529
vt 0.146299 1.000000
vt 0.020367 1.000000
vt -0.000000 0.904529
vt -0.000000 0.595471
vt 0.020367 0.500000
vt 0.646299 0.500000
vt 0.666667 0.595471
vt 0.666667 0.904529
vt 0.646299 1.000000
vt 0.520367 1.000000
vt 0.500000 0.904529
vt 0.500000 0.595471
vt 0.520367 0.500000
vt 0.479633 0.500000
vt 0.479633 1.000000
vt 0.353701 1.000000
vt 0.333333 0.904529
vt 0.333333 0.595471
vt 0.353701 0.500000
vt 0.312966 0.500000
vt 0.312966 1.000000
vt 0.187034 1.000000
vt 0.187034 0.500000
vt 0.812966 0.500000
vt 0.833333 0.595471
vt 0.833333 0.904529
vt 0.812966 1.000000
vt 0.687034 1.000000
vt 0.687034 0.500000
vt 0.457846 0.340671
vt 0.432447 0.384664
vt 0.275400 0.475336
vt 0.224600 0.475336
vt 0.067553 0.384664
vt 0.042154 0.340671
vt 0.042154 0.159329
vt 0.067553 0.115336
vt 0.224600 0.024664
vt 0.275400 0.024664
vt 0.432447 0.115336
vt 0.457846 0.159329
vt 0.979633 0.500000
vt 1.000000 0.595471
vt 1.000000 0.904529
vt 0.979633 1.000000
vt 0.853701 1.000000
vt 0.853701 0.500000
vt 0.724600 0.475336
vt 0.750000 0.490000
vt 0.775400 0.475336
vt 0.250000 0.490000
vt 0.932447 0.384664
vt 0.957846 0.370000
vt 0.957846 0.340671
vt 0.457846 0.370000
vt 0.957846 0.159329
vt 0.957846 0.130000
vt 0.932447 0.115336
vt 0.457846 0.130000
vt 0.775400 0.024664
vt 0.750000 0.010000
vt 0.724600 0.024664
vt 0.250000 0.010000
vt 0.567553 0.115336
vt 0.542154 0.130000
vt 0.542154 0.159329
vt 0.042154 0.130000
vt 0.542154 0.340671
vt 0.542154 0.370000
vt 0.567553 0.384664
vt 0.042154 0.370000
vn -0.5000 0.0000 -0.8660
vn 0.5000 0.0000 0.8660
vn -0.5000 0.0000 0.8660
vn -1.0000 0.0000 0.0000
vn 1.0000 0.0000 0.0000
vn 0.0000 1.0000 0.0000
vn 0.5000 0.0000 -0.8660
vn 0.0000 -0.4472 -0.8944
vn 0.0000 0.4472 -0.8944
vn 0.7746 -0.4472 -0.4472
vn 0.7746 0.4472 -0.4472
vn 0.7746 -0.4472 0.4472
vn 0.7746 0.4472 0.4472
vn 0.0000 -0.4472 0.8944
vn 0.0000 0.4472 0.8944
vn -0.7746 -0.4472 0.4472
vn -0.7746 0.4472 0.4472
vn -0.7746 -0.4472 -0.4472
vn -0.7746 0.4472 -0.4472
vn 0.0000 -1.0000 -0.0000
usemtl None
s off
f 177/201/67 176/202/67 179/203/67 178/204/67 150/205/67 149/206/67 146/207/67 145/208/67
f 159/209/68 158/210/68 161/211/68 160/212/68 168/213/68 167/214/68 164/215/68 163/216/68
f 165/217/69 164/215/69 167/214/69 166/218/69 174/219/69 173/220/69 170/221/69 169/222/69
f 171/223/70 170/221/70 173/220/70 172/224/70 180/225/70 179/203/70 176/202/70 175/226/70
f 153/227/71 152/228/71 155/229/71 154/230/71 162/231/71 161/211/71 158/210/71 157/232/71
f 154/233/72 156/234/72 148/235/72 150/236/72 178/237/72 180/238/72 172/239/72 174/240/72 166/241/72 168/242/72 160/243/72 162/244/72
f 147/245/73 146/246/73 149/247/73 148/248/73 156/249/73 155/229/73 152/228/73 151/250/73
f 145/251/74 146/252/74 147/253/74
f 148/235/75 149/254/75 150/236/75
f 151/255/76 152/256/76 153/257/76
f 154/233/77 155/258/77 156/234/77
f 157/259/78 158/260/78 159/261/78
f 160/243/79 161/262/79 162/244/79
f 163/263/80 164/264/80 165/265/80
f 166/241/81 167/266/81 168/242/81
f 169/267/82 170/268/82 171/269/82
f 172/239/83 173/270/83 174/240/83
f 175/271/84 176/272/84 177/273/84
f 178/237/85 179/274/85 180/238/85
f 145/251/86 147/253/86 151/255/86 153/257/86 157/259/86 159/261/86 163/263/86 165/265/86 169/267/86 171/269/86 175/271/86 177/273/86
