# Blender v2.83.2 OBJ File: 'schraubenschluessel2.blend'
# www.blender.org
mtllib werkzeug.mtl
o Cube_Cube.001
v -0.125000 -1.000000 1.000000
v -0.125000 1.000000 1.000000
v -0.125000 -1.000000 -0.649974
v -0.125000 1.000000 -0.649974
v 0.125000 -1.000000 1.000000
v 0.125000 1.000000 1.000000
v 0.125000 -1.000000 -0.649974
v 0.125000 1.000000 -0.649974
v -0.125000 -0.500000 1.000000
v -0.125000 0.369115 -1.000000
v -0.125000 0.500000 1.000000
v -0.125000 0.500000 -1.000000
v -0.125000 0.000000 -1.000000
v -0.125000 -0.500000 -1.000000
v 0.125000 0.500000 -1.000000
v 0.125000 0.000000 -1.000000
v 0.125000 -0.500000 -1.000000
v 0.125000 0.500000 1.000000
v 0.125000 0.369115 -1.000000
v 0.125000 -0.500000 1.000000
v -0.125000 -0.500000 -0.326855
v -0.125000 0.000000 -0.599286
v -0.125000 0.500000 -0.326855
v 0.125000 0.500000 -0.326855
v 0.125000 0.000000 -0.599286
v 0.125000 -0.500000 -0.326855
v -0.125000 -0.369115 -1.000000
v 0.125000 -0.369115 -1.000000
v -0.125000 -0.735912 -7.879136
v 0.125000 -0.735912 -7.879136
v -0.125000 0.735912 -7.879136
v -0.125000 0.000000 -8.700748
v 0.125000 0.735912 -7.879136
v 0.125000 0.000000 -8.700748
v -0.125000 0.125000 -1.000000
v 0.125000 0.125000 -1.000000
v -0.125000 0.414213 -8.516584
v 0.125000 0.414213 -8.516584
v 0.125000 -0.125000 -1.000000
v -0.125000 -0.125000 -1.000000
v 0.125000 -0.414213 -8.516584
v -0.125000 -0.414213 -8.516584
v -0.125000 0.247058 -1.000000
v 0.125000 0.247058 -1.000000
v -0.125000 0.621320 -8.349071
v 0.125000 0.621320 -8.349071
v 0.125000 -0.247058 -1.000000
v -0.125000 -0.247058 -1.000000
v 0.125000 -0.621320 -8.349071
v -0.125000 -0.621320 -8.349071
v 0.125000 -0.000000 -8.276420
v -0.125000 0.000000 -8.276420
v 0.125000 0.407032 -7.571420
v 0.125000 0.377184 -7.554187
v -0.125000 0.377184 -7.554187
v -0.125000 0.407032 -7.571420
v 0.125000 0.407032 -8.041420
v 0.125000 0.396172 -8.047690
v -0.125000 0.396172 -8.047690
v -0.125000 0.407032 -8.041420
v 0.125000 0.000000 -7.336420
v -0.125000 0.000000 -7.336420
v 0.125000 -0.396172 -8.047690
v -0.125000 -0.407032 -8.041420
v -0.125000 -0.396172 -8.047690
v 0.125000 -0.407032 -8.041420
v -0.125000 -0.407032 -7.571420
v 0.125000 -0.407032 -7.571420
v 0.125000 -0.377183 -7.554187
v -0.125000 -0.377183 -7.554187
vt 0.562500 0.000000
vt 0.625000 0.250000
vt 0.562500 0.250000
vt 0.562500 0.500000
vt 0.625000 0.500000
vt 0.562500 0.750000
vt 0.625000 0.750000
vt 0.562500 1.000000
vt 0.375000 0.500000
vt 0.125000 0.750000
vt 0.125000 0.500000
vt 0.875000 0.500000
vt 0.437500 0.750000
vt 0.375000 1.000000
vt 0.375000 0.750000
vt 0.437500 1.000000
vt 0.437500 1.000000
vt 0.562500 0.750000
vt 0.468750 0.250000
vt 0.468750 0.500000
vt 0.468750 0.500000
vt 0.437500 0.250000
vt 0.375000 0.250000
vt 0.523438 0.250000
vt 0.531250 0.250000
vt 0.523438 0.250000
vt 0.531250 0.500000
vt 0.531250 0.250000
vt 0.437500 0.000000
vt 0.375000 0.000000
vt 0.500000 0.750000
vt 0.437500 0.750000
vt 0.500000 1.000000
vt 0.437500 0.500000
vt 0.523438 0.500000
vt 0.500000 0.250000
vt 0.484375 0.500000
vt 0.484375 0.250000
vt 0.484375 0.250000
vt 0.500000 0.250000
vt 0.484375 0.250000
vt 0.515625 0.500000
vt 0.500000 0.500000
vt 0.515625 0.500000
vt 0.476562 0.500000
vt 0.476562 0.500000
vt 0.516744 0.500000
vt 0.516039 0.500000
vt 0.515625 0.250000
vt 0.500000 0.500000
vt 0.515625 0.250000
vt 0.500000 0.250000
vt 0.484375 0.500000
vt 0.500000 0.500000
vt 0.483256 0.250000
vt 0.483961 0.250000
vt 0.476562 0.250000
vt 0.523438 0.500000
vt 0.531250 0.500000
vt 0.515625 0.500000
vt 0.516744 0.250000
vt 0.468750 0.250000
vt 0.476562 0.250000
vt 0.483256 0.500000
vt 0.162220 0.781250
vt 0.166667 0.718750
vt 0.162220 0.718750
vt 0.166667 0.781250
vt 0.333333 0.718750
vt 0.654445 0.781250
vt 0.666667 0.718750
vt 0.654444 0.718750
vt 0.500000 0.781250
vt 0.500000 0.718750
vt 0.345555 0.718750
vt 0.500000 0.250000
vt 0.484375 0.250000
vt 0.500000 0.500000
vt 1.000000 0.781250
vt 1.000000 0.718750
vt 0.837780 0.718750
vt 0.666667 0.781250
vt 0.833333 0.718750
vt 0.515625 0.500000
vt 0.625000 0.000000
vt 0.625000 1.000000
vt 0.875000 0.750000
vt 0.562500 1.000000
vt 0.515625 0.250000
vt 0.484375 0.500000
vt 0.515625 0.250000
vt 0.516039 0.250000
vt 0.484375 0.500000
vt 0.483961 0.500000
vt -0.000000 0.718750
vt -0.000000 0.781250
vt 0.333333 0.781250
vt 0.345555 0.781250
vt 0.837780 0.781250
vt 0.833333 0.781250
vn -1.0000 0.0000 0.0000
vn 0.0000 0.5735 -0.8192
vn 1.0000 0.0000 0.0000
vn 0.0000 0.0000 1.0000
vn 0.0000 -1.0000 0.0000
vn 0.0000 1.0000 0.0000
vn 0.0000 -0.9986 0.0532
vn 0.0000 -0.5735 -0.8192
vn 0.0000 0.0000 -1.0000
vn 0.0000 0.4785 0.8781
vn 0.0000 -0.4785 0.8781
vn 0.0000 0.9715 -0.2369
vn 0.0000 -0.4063 -0.9138
vn 0.0000 0.9986 0.0532
vn 0.0000 0.4063 -0.9138
vn 0.0000 -0.6289 -0.7775
vn 0.0000 0.6289 -0.7775
vn 0.0000 -0.9715 -0.2369
vn 0.0000 -0.5000 0.8660
vn 0.0000 0.5000 -0.8660
vn 0.0000 -0.5000 -0.8660
vn 0.0000 0.5000 0.8660
usemtl None
s off
f 11/1/1 4/2/1 12/3/1
f 4/2/2 15/4/2 12/3/2
f 8/5/3 18/6/3 15/4/3
f 6/7/4 11/8/4 18/6/4
f 7/9/5 1/10/5 3/11/5
f 4/12/6 6/7/6 8/5/6
f 20/13/4 1/14/4 5/15/4
f 20/13/6 21/16/6 9/17/6
f 11/8/5 24/18/5 18/6/5
f 7/9/3 20/13/3 5/15/3
f 15/4/4 18/6/4 24/18/4
f 27/19/7 30/20/7 28/21/7
f 14/22/8 7/9/8 3/23/8
f 43/24/1 31/25/1 45/26/1
f 12/3/9 19/27/9 10/28/9
f 9/29/1 3/23/1 1/30/1
f 25/31/10 21/16/10 26/32/10
f 24/18/11 22/33/11 25/31/11
f 27/19/9 17/34/9 14/22/9
f 27/19/1 14/22/1 21/16/1
f 31/25/12 46/35/12 45/26/12
f 32/36/13 41/37/13 42/38/13
f 40/39/1 62/40/1 70/41/1
f 36/42/3 61/43/3 54/44/3
f 19/27/14 31/25/14 10/28/14
f 47/45/3 30/20/3 49/46/3
f 53/47/3 57/48/3 46/35/3
f 37/49/15 34/50/15 32/36/15
f 35/51/1 62/40/1 13/52/1
f 39/53/3 61/43/3 16/54/3
f 67/55/1 64/56/1 50/57/1
f 42/38/16 49/46/16 50/57/16
f 44/58/3 33/59/3 19/27/3
f 45/26/17 38/60/17 37/49/17
f 43/24/1 45/26/1 56/61/1
f 50/57/18 30/20/18 29/62/18
f 48/63/1 29/62/1 27/19/1
f 47/45/3 49/46/3 68/64/3
f 58/65/19 60/66/19 59/67/19
f 57/68/5 56/69/5 60/66/5
f 69/70/20 67/71/20 70/72/20
f 61/73/21 62/74/21 55/75/21
f 52/76/1 42/38/1 65/77/1
f 52/76/1 37/49/1 32/36/1
f 51/78/3 41/37/3 34/50/3
f 51/79/22 52/80/22 65/81/22
f 68/82/6 64/83/6 67/71/6
f 51/78/3 38/60/3 58/84/3
f 11/1/1 2/85/1 4/2/1
f 4/2/2 8/5/2 15/4/2
f 8/5/3 6/7/3 18/6/3
f 6/7/4 2/86/4 11/8/4
f 7/9/5 5/15/5 1/10/5
f 4/12/6 2/87/6 6/7/6
f 20/13/4 9/17/4 1/14/4
f 20/13/6 26/32/6 21/16/6
f 11/8/5 23/88/5 24/18/5
f 7/9/3 17/34/3 20/13/3
f 39/53/3 16/54/3 25/31/3
f 16/54/3 36/42/3 25/31/3
f 25/31/3 36/42/3 44/58/3
f 44/58/3 19/27/3 25/31/3
f 19/27/3 15/4/3 24/18/3
f 47/45/3 39/53/3 25/31/3
f 19/27/3 24/18/3 25/31/3
f 17/34/3 28/21/3 26/32/3
f 28/21/3 47/45/3 25/31/3
f 26/32/4 20/13/4 17/34/4
f 25/31/3 26/32/3 28/21/3
f 27/19/7 29/62/7 30/20/7
f 14/22/8 17/34/8 7/9/8
f 43/24/1 10/28/1 31/25/1
f 12/3/9 15/4/9 19/27/9
f 9/29/1 14/22/1 3/23/1
f 25/31/10 22/33/10 21/16/10
f 24/18/11 23/88/11 22/33/11
f 27/19/9 28/21/9 17/34/9
f 23/88/1 12/3/1 10/28/1
f 43/24/1 35/51/1 22/33/1
f 35/51/1 13/52/1 22/33/1
f 23/88/1 10/28/1 22/33/1
f 10/28/1 43/24/1 22/33/1
f 13/52/1 40/39/1 22/33/1
f 40/39/1 48/63/1 22/33/1
f 22/33/1 48/63/1 27/19/1
f 14/22/4 9/17/4 21/16/4
f 21/16/1 22/33/1 27/19/1
f 31/25/12 33/59/12 46/35/12
f 32/36/13 34/50/13 41/37/13
f 40/39/1 13/52/1 62/40/1
f 36/42/3 16/54/3 61/43/3
f 19/27/14 33/59/14 31/25/14
f 47/45/3 28/21/3 30/20/3
f 46/35/3 44/58/3 53/47/3
f 44/58/3 36/42/3 54/44/3
f 53/47/3 44/58/3 54/44/3
f 57/48/3 58/84/3 46/35/3
f 58/84/3 38/60/3 46/35/3
f 37/49/15 38/60/15 34/50/15
f 35/51/1 55/89/1 62/40/1
f 39/53/3 69/90/3 61/43/3
f 50/57/1 48/63/1 67/55/1
f 48/63/1 40/39/1 70/41/1
f 67/55/1 48/63/1 70/41/1
f 64/56/1 65/77/1 50/57/1
f 65/77/1 42/38/1 50/57/1
f 42/38/16 41/37/16 49/46/16
f 44/58/3 46/35/3 33/59/3
f 45/26/17 46/35/17 38/60/17
f 55/89/1 35/51/1 43/24/1
f 45/26/1 37/49/1 59/91/1
f 45/26/1 59/91/1 60/92/1
f 56/61/1 55/89/1 43/24/1
f 45/26/1 60/92/1 56/61/1
f 50/57/18 49/46/18 30/20/18
f 48/63/1 50/57/1 29/62/1
f 69/90/3 39/53/3 47/45/3
f 49/46/3 41/37/3 63/93/3
f 49/46/3 63/93/3 66/94/3
f 68/64/3 69/90/3 47/45/3
f 49/46/3 66/94/3 68/64/3
f 59/67/19 52/95/19 51/96/19
f 58/65/19 57/68/19 60/66/19
f 59/67/19 51/96/19 58/65/19
f 57/68/5 53/97/5 56/69/5
f 70/72/20 62/74/20 61/73/20
f 69/70/20 68/82/20 67/71/20
f 70/72/20 61/73/20 69/70/20
f 55/75/21 56/69/21 54/98/21
f 56/69/21 53/97/21 54/98/21
f 54/98/21 61/73/21 55/75/21
f 52/76/1 32/36/1 42/38/1
f 52/76/1 59/91/1 37/49/1
f 51/78/3 63/93/3 41/37/3
f 65/81/22 64/83/22 63/99/22
f 64/83/22 66/100/22 63/99/22
f 63/99/22 51/79/22 65/81/22
f 68/82/6 66/100/6 64/83/6
f 51/78/3 34/50/3 38/60/3
