# Blender v2.83.2 OBJ File: 'schraubenschluessel.blend'
# www.blender.org
mtllib schraubenschluessel.mtl
o Cube_Cube.001
v -0.125000 -1.000000 1.000000
v -0.125000 1.000000 1.000000
v -0.125000 -1.000000 -0.649974
v -0.125000 1.000000 -0.649974
v 0.125000 -1.000000 1.000000
v 0.125000 1.000000 1.000000
v 0.125000 -1.000000 -0.649974
v 0.125000 1.000000 -0.649974
v -0.125000 -0.500000 1.000000
v -0.125000 0.369115 -1.000000
v -0.125000 0.500000 1.000000
v -0.125000 0.500000 -1.000000
v -0.125000 0.000000 -1.000000
v -0.125000 -0.500000 -1.000000
v 0.125000 0.500000 -1.000000
v 0.125000 0.000000 -1.000000
v 0.125000 -0.500000 -1.000000
v 0.125000 0.500000 1.000000
v 0.125000 0.369115 -1.000000
v 0.125000 -0.500000 1.000000
v -0.125000 -0.500000 -0.326855
v -0.125000 0.000000 -0.599286
v -0.125000 0.500000 -0.326855
v 0.125000 0.500000 -0.326855
v 0.125000 0.000000 -0.599286
v 0.125000 -0.500000 -0.326855
v -0.125000 -0.369115 -1.000000
v 0.125000 -0.369115 -1.000000
v -0.125000 -0.735912 -7.879136
v 0.125000 -0.735912 -7.879136
v -0.125000 0.735912 -7.879136
v -0.125000 0.000000 -8.700748
v 0.125000 0.735912 -7.879136
v 0.125000 0.000000 -8.700748
v -0.125000 0.125000 -1.000000
v 0.125000 0.125000 -1.000000
v -0.125000 0.414213 -8.516584
v 0.125000 0.414213 -8.516584
v 0.125000 -0.125000 -1.000000
v -0.125000 -0.125000 -1.000000
v 0.125000 -0.414213 -8.516584
v -0.125000 -0.414213 -8.516584
v -0.125000 0.247058 -1.000000
v 0.125000 0.247058 -1.000000
v -0.125000 0.621320 -8.349071
v 0.125000 0.621320 -8.349071
v 0.125000 -0.247058 -1.000000
v -0.125000 -0.247058 -1.000000
v 0.125000 -0.621320 -8.349071
v -0.125000 -0.621320 -8.349071
v 0.125000 -0.000000 -8.276420
v -0.125000 0.000000 -8.276420
v 0.125000 0.407032 -7.571420
v 0.125000 0.377184 -7.554187
v -0.125000 0.377184 -7.554187
v -0.125000 0.407032 -7.571420
v 0.125000 0.407032 -8.041420
v 0.125000 0.396172 -8.047690
v -0.125000 0.396172 -8.047690
v -0.125000 0.407032 -8.041420
v 0.125000 0.000000 -7.336420
v -0.125000 0.000000 -7.336420
v 0.125000 -0.396172 -8.047690
v -0.125000 -0.407032 -8.041420
v -0.125000 -0.396172 -8.047690
v 0.125000 -0.407032 -8.041420
v -0.125000 -0.407032 -7.571420
v 0.125000 -0.407032 -7.571420
v 0.125000 -0.377183 -7.554187
v -0.125000 -0.377183 -7.554187
vt 0.562500 0.000000
vt 0.625000 0.000000
vt 0.625000 0.250000
vt 0.562500 0.250000
vt 0.625000 0.500000
vt 0.562500 0.500000
vt 0.625000 0.750000
vt 0.562500 0.750000
vt 0.625000 1.000000
vt 0.562500 1.000000
vt 0.125000 0.500000
vt 0.375000 0.500000
vt 0.375000 0.750000
vt 0.125000 0.750000
vt 0.875000 0.500000
vt 0.875000 0.750000
vt 0.437500 0.750000
vt 0.437500 1.000000
vt 0.375000 1.000000
vt 0.437500 0.750000
vt 0.437500 1.000000
vt 0.562500 1.000000
vt 0.562500 0.750000
vt 0.437500 0.500000
vt 0.500000 0.500000
vt 0.515625 0.500000
vt 0.523438 0.500000
vt 0.531250 0.500000
vt 0.500000 0.750000
vt 0.468750 0.500000
vt 0.476562 0.500000
vt 0.484375 0.500000
vt 0.468750 0.250000
vt 0.468750 0.250000
vt 0.468750 0.500000
vt 0.375000 0.250000
vt 0.437500 0.250000
vt 0.523438 0.250000
vt 0.531250 0.250000
vt 0.531250 0.250000
vt 0.523438 0.250000
vt 0.375000 0.000000
vt 0.437500 0.000000
vt 0.500000 1.000000
vt 0.515625 0.250000
vt 0.500000 0.250000
vt 0.484375 0.250000
vt 0.476562 0.250000
vt 0.531250 0.500000
vt 0.523438 0.500000
vt 0.484375 0.250000
vt 0.500000 0.250000
vt 0.500000 0.500000
vt 0.484375 0.500000
vt 0.500000 0.250000
vt 0.484375 0.250000
vt 0.500000 0.500000
vt 0.515625 0.500000
vt 0.476562 0.500000
vt 0.516744 0.500000
vt 0.516039 0.500000
vt 0.515625 0.500000
vt 0.515625 0.500000
vt 0.515625 0.250000
vt 0.515625 0.250000
vt 0.484375 0.500000
vt 0.483256 0.250000
vt 0.483961 0.250000
vt 0.484375 0.250000
vt 0.476562 0.250000
vt 0.515625 0.250000
vt 0.516039 0.250000
vt 0.516744 0.250000
vt 0.484375 0.500000
vt 0.483961 0.500000
vt 0.483256 0.500000
vt -0.000000 0.718750
vt -0.000000 0.781250
vt 0.162220 0.781250
vt 0.166667 0.781250
vt 0.166667 0.718750
vt 0.162220 0.718750
vt 0.333333 0.781250
vt 0.333333 0.718750
vt 0.500000 0.718750
vt 0.500000 0.781250
vt 0.654445 0.781250
vt 0.666667 0.781250
vt 0.666667 0.718750
vt 0.654444 0.718750
vt 0.345555 0.781250
vt 0.345555 0.718750
vt 0.500000 0.250000
vt 0.500000 0.500000
vt 0.833333 0.718750
vt 0.833333 0.781250
vt 0.837780 0.781250
vt 1.000000 0.781250
vt 1.000000 0.718750
vt 0.837780 0.718750
vn -1.0000 0.0000 0.0000
vn 0.0000 0.5735 -0.8192
vn 1.0000 0.0000 0.0000
vn 0.0000 0.0000 1.0000
vn 0.0000 -1.0000 0.0000
vn 0.0000 1.0000 0.0000
vn 0.0000 -0.9986 0.0532
vn 0.0000 -0.5735 -0.8192
vn 0.0000 0.0000 -1.0000
vn 0.0000 0.4785 0.8781
vn 0.0000 -0.4785 0.8781
vn 0.0000 0.9715 -0.2369
vn 0.0000 -0.4063 -0.9138
vn 0.0000 0.9986 0.0532
vn 0.0000 0.4063 -0.9138
vn 0.0000 -0.6289 -0.7775
vn 0.0000 0.6289 -0.7775
vn 0.0000 -0.9715 -0.2369
vn 0.0000 -0.5000 0.8660
vn 0.0000 0.5000 -0.8660
vn 0.0000 -0.5000 -0.8660
vn 0.0000 0.5000 0.8660
usemtl None
s off
f 11/1/1 2/2/1 4/3/1 12/4/1
f 12/4/2 4/3/2 8/5/2 15/6/2
f 15/6/3 8/5/3 6/7/3 18/8/3
f 18/8/4 6/7/4 2/9/4 11/10/4
f 3/11/5 7/12/5 5/13/5 1/14/5
f 8/5/6 4/15/6 2/16/6 6/7/6
f 5/13/4 20/17/4 9/18/4 1/19/4
f 9/18/6 20/17/6 26/20/6 21/21/6
f 18/8/5 11/10/5 23/22/5 24/23/5
f 7/12/3 17/24/3 20/17/3 5/13/3
f 16/25/3 36/26/3 44/27/3 19/28/3 15/6/3 18/8/3 24/23/3 25/29/3 26/20/3 20/17/3 17/24/3 28/30/3 47/31/3 39/32/3
f 28/30/7 27/33/7 29/34/7 30/35/7
f 3/36/8 14/37/8 17/24/8 7/12/8
f 43/38/1 10/39/1 31/40/1 45/41/1
f 10/39/9 12/4/9 15/6/9 19/28/9
f 1/42/1 9/43/1 14/37/1 3/36/1
f 26/20/10 25/29/10 22/44/10 21/21/10
f 25/29/11 24/23/11 23/22/11 22/44/11
f 14/37/9 27/33/9 28/30/9 17/24/9
f 12/4/1 10/39/1 43/38/1 35/45/1 13/46/1 40/47/1 48/48/1 27/33/1 14/37/1 9/18/1 21/21/1 22/44/1 23/22/1
f 45/41/12 31/40/12 33/49/12 46/50/12
f 42/51/13 32/52/13 34/53/13 41/54/13
f 40/47/1 13/46/1 62/55/1 70/56/1
f 36/26/3 16/25/3 61/57/3 54/58/3
f 10/39/14 19/28/14 33/49/14 31/40/14
f 47/31/3 28/30/3 30/35/3 49/59/3
f 44/27/3 36/26/3 54/58/3 53/60/3 57/61/3 58/62/3 38/63/3 46/50/3
f 32/52/15 37/64/15 38/63/15 34/53/15
f 13/46/1 35/45/1 55/65/1 62/55/1
f 16/25/3 39/32/3 69/66/3 61/57/3
f 48/48/1 40/47/1 70/56/1 67/67/1 64/68/1 65/69/1 42/51/1 50/70/1
f 50/70/16 42/51/16 41/54/16 49/59/16
f 19/28/3 44/27/3 46/50/3 33/49/3
f 37/64/17 45/41/17 46/50/17 38/63/17
f 35/45/1 43/38/1 45/41/1 37/64/1 59/71/1 60/72/1 56/73/1 55/65/1
f 29/34/18 50/70/18 49/59/18 30/35/18
f 27/33/1 48/48/1 50/70/1 29/34/1
f 39/32/3 47/31/3 49/59/3 41/54/3 63/74/3 66/75/3 68/76/3 69/66/3
f 52/77/19 51/78/19 58/79/19 57/80/19 60/81/19 59/82/19
f 60/81/5 57/80/5 53/83/5 56/84/5
f 62/85/20 61/86/20 69/87/20 68/88/20 67/89/20 70/90/20
f 56/84/21 53/83/21 54/91/21 61/86/21 62/85/21 55/92/21
f 65/69/1 52/93/1 32/52/1 42/51/1
f 52/93/1 59/71/1 37/64/1 32/52/1
f 51/94/3 63/74/3 41/54/3 34/53/3
f 64/95/22 66/96/22 63/97/22 51/98/22 52/99/22 65/100/22
f 67/89/6 68/88/6 66/96/6 64/95/6
f 58/62/3 51/94/3 34/53/3 38/63/3
o Cylinder
v -1.000000 0.000000 -8.276420
v 1.000000 -0.000000 -8.276420
v -1.000000 -0.407032 -8.041420
v 1.000000 -0.407032 -8.041420
v -1.000000 -0.407032 -7.571420
v 1.000000 -0.407032 -7.571420
v -1.000000 0.000000 -7.336420
v 1.000000 -0.000000 -7.336420
v -1.000000 0.407032 -7.571420
v 1.000000 0.407032 -7.571420
v -1.000000 0.407032 -8.041420
v 1.000000 0.407032 -8.041420
vt 1.000000 0.500000
vt 1.000000 1.000000
vt 0.833333 1.000000
vt 0.833333 0.500000
vt 0.666667 1.000000
vt 0.666667 0.500000
vt 0.500000 1.000000
vt 0.500000 0.500000
vt 0.333333 1.000000
vt 0.333333 0.500000
vt 0.457846 0.370000
vt 0.250000 0.490000
vt 0.042154 0.370000
vt 0.042154 0.130000
vt 0.250000 0.010000
vt 0.457846 0.130000
vt 0.166667 1.000000
vt 0.166667 0.500000
vt -0.000000 1.000000
vt -0.000000 0.500000
vt 0.750000 0.490000
vt 0.957846 0.370000
vt 0.957846 0.130000
vt 0.750000 0.010000
vt 0.542154 0.130000
vt 0.542154 0.370000
vn -0.0000 -0.5000 -0.8660
vn -0.0000 -1.0000 0.0000
vn -0.0000 -0.5000 0.8660
vn -0.0000 0.5000 0.8660
vn 1.0000 0.0000 0.0000
vn 0.0000 1.0000 0.0000
vn 0.0000 0.5000 -0.8660
vn -1.0000 0.0000 0.0000
usemtl None
s off
f 71/101/23 72/102/23 74/103/23 73/104/23
f 73/104/24 74/103/24 76/105/24 75/106/24
f 75/106/25 76/105/25 78/107/25 77/108/25
f 77/108/26 78/107/26 80/109/26 79/110/26
f 74/111/27 72/112/27 82/113/27 80/114/27 78/115/27 76/116/27
f 79/110/28 80/109/28 82/117/28 81/118/28
f 81/118/29 82/117/29 72/119/29 71/120/29
f 71/121/30 73/122/30 75/123/30 77/124/30 79/125/30 81/126/30
